<?xml version="1.0" standalone="no"?>
<!DOCTYPE svg PUBLIC "-//W3C//DTD SVG 20010904//EN"
 "http://www.w3.org/TR/2001/REC-SVG-20010904/DTD/svg10.dtd">
<svg version="1.0" xmlns="http://www.w3.org/2000/svg"
 width="1366.000000pt" height="362.000000pt" viewBox="0 0 1366.000000 362.000000"
 preserveAspectRatio="xMidYMid meet">
<metadata>
Created by potrace 1.16, written by Peter Selinger 2001-2019
</metadata>
<g transform="translate(0.000000,362.000000) scale(0.100000,-0.100000)"
fill="#000000" stroke="none">
<path d="M6355 3339 c-60 -10 -140 -23 -178 -30 l-68 -11 3 -996 3 -997 28
-78 c82 -233 245 -347 530 -372 l77 -7 0 165 0 164 -41 6 c-73 10 -129 54
-169 131 l-35 69 -3 988 c-2 930 -4 989 -20 988 -9 -1 -66 -10 -127 -20z"/>
<path d="M10760 3339 c-63 -10 -146 -24 -183 -30 l-68 -11 3 -986 c3 -905 5
-992 21 -1047 73 -251 247 -383 540 -410 l77 -7 0 166 c0 151 -2 166 -17 166
-103 0 -193 93 -222 228 -8 37 -11 338 -11 1002 0 754 -3 950 -12 949 -7 0
-65 -9 -128 -20z"/>
<path d="M11567 3246 c-103 -37 -162 -130 -155 -242 5 -75 37 -130 105 -178
78 -55 205 -46 281 20 84 72 105 201 48 298 -56 95 -175 139 -279 102z"/>
<path d="M9314 2586 c-98 -19 -137 -32 -224 -77 -148 -76 -251 -183 -331 -341
-51 -101 -77 -198 -91 -339 -30 -306 71 -597 269 -778 151 -139 410 -220 615
-192 312 42 504 173 628 426 74 150 95 246 94 435 -1 167 -13 244 -59 366 -95
252 -284 425 -535 488 -90 23 -277 29 -366 12z m318 -348 c76 -35 138 -99 181
-189 46 -94 67 -200 67 -337 0 -335 -176 -550 -435 -529 -102 8 -158 31 -224
93 -102 94 -149 211 -158 394 -14 303 93 523 286 585 74 24 212 15 283 -17z"/>
<path d="M11680 2575 c-74 -12 -156 -25 -182 -29 l-48 -7 0 -845 0 -844 195 0
195 0 0 875 c0 694 -3 875 -12 874 -7 -1 -74 -11 -148 -24z"/>
<path d="M12680 2594 c-170 -20 -356 -56 -372 -72 -4 -4 3 -75 15 -157 26
-173 8 -160 167 -125 82 18 138 24 255 24 141 1 153 -1 205 -25 115 -54 161
-130 168 -278 l5 -94 -24 6 c-146 36 -415 35 -552 -2 -178 -47 -299 -137 -364
-269 -36 -72 -38 -82 -41 -186 -6 -188 34 -302 141 -403 178 -169 501 -202
1080 -112 l138 22 -3 586 c-4 567 -5 589 -26 666 -62 225 -176 338 -399 396
-76 20 -307 33 -393 23z m335 -974 c116 -17 105 7 105 -220 l0 -200 -27 -7
c-16 -4 -104 -8 -198 -8 -153 0 -175 3 -225 23 -88 36 -126 78 -141 155 -13
67 -1 112 42 161 77 88 245 124 444 96z"/>
<path d="M4940 2580 c-92 -11 -311 -57 -321 -67 -3 -5 3 -75 15 -158 25 -173
7 -160 166 -125 82 18 138 24 255 24 l150 1 68 -33 c110 -55 157 -141 157
-290 0 -72 -1 -74 -22 -68 -126 34 -417 33 -551 -3 -178 -47 -306 -144 -370
-278 -31 -66 -32 -72 -32 -203 0 -149 13 -206 67 -292 152 -241 492 -300 1151
-197 l138 22 -3 586 c-4 577 -4 587 -27 671 -61 221 -174 333 -398 391 -90 23
-321 33 -443 19z m375 -971 c50 -6 98 -15 108 -20 15 -9 17 -29 17 -204 l0
-195 -27 -7 c-16 -4 -104 -8 -198 -8 -192 0 -248 12 -312 68 -46 41 -63 82
-63 156 0 52 4 65 33 103 71 95 228 133 442 107z"/>
<path d="M7605 2575 c-316 -58 -547 -256 -624 -532 -47 -174 -53 -445 -12
-641 55 -262 221 -441 478 -514 64 -18 103 -22 218 -22 135 0 144 2 253 39 62
20 115 35 118 33 3 -3 0 -50 -5 -103 -17 -171 -83 -260 -223 -306 -68 -22 -87
-24 -263 -22 -106 1 -230 8 -280 16 -58 9 -92 11 -96 4 -11 -16 -62 -287 -56
-293 10 -11 221 -42 357 -54 212 -18 441 11 583 74 199 88 318 254 357 496 6
41 10 381 10 906 l0 842 -72 16 c-318 71 -577 92 -743 61z m310 -315 c39 -6
82 -13 98 -16 l27 -6 0 -484 0 -484 -32 -20 c-96 -59 -287 -86 -394 -56 -74
21 -154 75 -188 126 -108 164 -116 544 -14 743 43 85 137 163 231 192 50 16
176 18 272 5z"/>
</g>
</svg>
