<?xml version="1.0" standalone="no"?>
<!DOCTYPE svg PUBLIC "-//W3C//DTD SVG 20010904//EN"
 "http://www.w3.org/TR/2001/REC-SVG-20010904/DTD/svg10.dtd">
<svg version="1.0" xmlns="http://www.w3.org/2000/svg"
 width="80.000000pt" height="15.000000pt" viewBox="0 0 80.000000 15.000000"
 preserveAspectRatio="xMidYMid meet">
<metadata>
Created by potrace 1.16, written by Peter Selinger 2001-2019
</metadata>
<g transform="translate(0.000000,15.000000) scale(0.100000,-0.100000)"
fill="#000000" stroke="none">
<path d="M0 75 l0 -75 400 0 400 0 0 75 0 75 -400 0 -400 0 0 -75z m790 0 l0
-65 -390 0 -390 0 0 65 0 65 390 0 390 0 0 -65z"/>
<path d="M62 118 c-24 -24 -9 -98 20 -98 4 0 0 13 -9 29 -16 27 -16 30 0 55
18 27 11 36 -11 14z"/>
<path d="M174 108 c20 -29 20 -47 -1 -70 -18 -20 -4 -25 15 -6 16 16 16 70 0
86 -20 20 -30 13 -14 -10z"/>
<path d="M233 101 c8 -22 8 -36 -1 -55 l-12 -26 280 0 280 0 0 55 0 55 -279 0
-279 0 11 -29z m80 -20 c6 -24 0 -31 -25 -31 -13 0 -18 7 -18 25 0 31 35 35
43 6z m45 -5 c-6 -11 -12 -22 -13 -24 -1 -1 -7 9 -13 22 -9 21 -8 24 13 24 22
0 23 -3 13 -22z m78 15 c-18 -7 -18 -8 -3 -14 27 -10 20 -27 -10 -26 -24 0
-25 2 -9 8 18 7 18 8 2 14 -23 9 -11 27 17 26 20 0 21 -1 3 -8z m71 -14 c10
-22 9 -24 -18 -24 -22 0 -28 4 -24 14 3 8 5 19 5 24 0 18 27 8 37 -14z"/>
<path d="M90 85 c-6 -8 -9 -19 -5 -25 8 -13 35 -13 35 1 0 5 -4 7 -10 4 -5 -3
-10 1 -10 10 0 9 5 13 10 10 6 -3 10 -1 10 4 0 16 -15 13 -30 -4z"/>
<path d="M133 84 c-8 -22 13 -42 30 -25 10 10 9 11 -5 6 -21 -8 -26 20 -5 28
9 4 9 6 -1 6 -7 1 -15 -6 -19 -15z"/>
</g>
</svg>
