<?xml version="1.0" standalone="no"?>
<!DOCTYPE svg PUBLIC "-//W3C//DTD SVG 20010904//EN"
 "http://www.w3.org/TR/2001/REC-SVG-20010904/DTD/svg10.dtd">
<svg version="1.0" xmlns="http://www.w3.org/2000/svg"
 width="80.000000pt" height="15.000000pt" viewBox="0 0 80.000000 15.000000"
 preserveAspectRatio="xMidYMid meet">
<metadata>
Created by potrace 1.16, written by Peter Selinger 2001-2019
</metadata>
<g transform="translate(0.000000,15.000000) scale(0.100000,-0.100000)"
fill="#000000" stroke="none">
<path d="M0 75 l0 -75 400 0 400 0 0 75 0 75 -400 0 -400 0 0 -75z m40 46
c-13 -25 -13 -67 0 -92 9 -16 7 -19 -10 -19 -18 0 -20 6 -20 65 0 59 2 65 20
65 17 0 19 -3 10 -19z m142 2 c22 -20 23 -70 1 -95 -21 -23 -89 -24 -115 -1
-22 20 -23 70 -1 95 21 23 89 24 115 1z m333 7 l-280 -5 0 -50 0 -50 280 -5
280 -5 -297 -3 -296 -2 10 34 c8 24 7 43 0 65 l-11 31 297 -2 297 -3 -280 -5z
m-208 -46 c2 -5 -6 -15 -17 -22 -17 -10 -20 -10 -20 6 0 30 28 43 37 16z m91
-12 c2 -15 -2 -22 -12 -22 -11 0 -16 9 -16 26 0 31 23 28 28 -4z m107 18 c4
-6 1 -9 -6 -8 -19 5 -22 -20 -2 -25 16 -4 16 -5 1 -6 -20 -1 -32 15 -24 34 6
17 22 20 31 5z m50 -15 c0 -11 -8 -21 -17 -23 -14 -3 -18 3 -18 23 0 20 4 26
18 23 9 -2 17 -12 17 -23z m53 -3 c3 -17 -2 -22 -17 -22 -14 0 -21 6 -21 18 0
38 33 41 38 4z m42 -12 c0 -4 -7 -7 -15 -7 -10 0 -15 10 -15 26 1 25 1 25 15
7 8 -11 15 -23 15 -26z m21 12 c0 -11 4 -9 10 8 8 20 12 22 19 10 16 -24 11
-36 -12 -36 -24 0 -38 12 -38 34 0 19 20 4 21 -16z m80 -9 c-9 -16 -10 -14
-11 12 0 21 3 26 11 18 8 -8 8 -16 0 -30z m29 11 c0 -14 -4 -23 -9 -20 -5 3
-7 15 -4 26 7 28 13 25 13 -6z m-440 -14 c5 0 11 7 13 15 4 11 4 10 3 -2 -1
-10 -9 -19 -19 -21 -12 -3 -17 3 -16 20 1 17 3 18 6 6 2 -10 8 -18 13 -18z
m94 -2 c7 -5 4 -8 -6 -8 -12 0 -18 7 -17 23 0 15 2 17 6 7 3 -8 11 -18 17 -22z
m23 0 c-3 -7 -5 -2 -5 12 0 14 2 19 5 13 2 -7 2 -19 0 -25z m270 0 c-3 -7 -5
-2 -5 12 0 14 2 19 5 13 2 -7 2 -19 0 -25z"/>
<path d="M102 118 c-17 -17 -15 -73 4 -89 23 -19 48 1 52 40 5 50 -27 78 -56
49z m23 -29 c-5 -15 -4 -19 4 -15 6 4 11 1 11 -8 0 -8 -4 -17 -9 -20 -11 -7
-24 41 -16 54 11 18 17 10 10 -11z"/>
<path d="M530 75 c0 -8 5 -15 10 -15 6 0 10 7 10 15 0 8 -4 15 -10 15 -5 0
-10 -7 -10 -15z"/>
<path d="M580 75 c0 -8 5 -15 10 -15 6 0 10 7 10 15 0 8 -4 15 -10 15 -5 0
-10 -7 -10 -15z"/>
</g>
</svg>
