<svg id="oa" enable-background="new 0 0 512 512" version="1.1" viewBox="0 0 240 240" xml:space="preserve" xmlns="http://www.w3.org/2000/svg" xmlns:xlink="http://www.w3.org/1999/xlink"><use transform="matrix(5.13,0,0,5.13,504,-245)" width="100%" height="100%" fill="#d40000" stroke-width=".195" xlink:href="#use9029"/><use transform="matrix(2.02 0 0 2.02 -91.8 120)" width="100%" height="100%" fill="#d40000" stroke-width=".27" xlink:href="#use9029"/><g transform="matrix(1.09 0 0 1.09 -9.39 -9.12)" stroke-width=".92"><g fill="#cb6c6c" stroke-dashoffset=".34" stroke-linecap="round" stroke-linejoin="round" stroke-width=".92"><path d="m57.3 75.3q2.33-0.342 3.74-1.71 1.43-1.4 1.43-3.24 0-1.84-0.747-2.83-0.716-1.03-1.93-1.74-1.18-0.747-2.71-1.31-1.53-0.592-3.11-1.15-1.59-0.592-3.11-1.31t-2.74-1.71q-2.65-2.21-2.65-5.79 0-3.21 2.43-5.7 2.74-2.86 7.16-3.21v2.46q-1.81 0.342-2.9 1.49-1.06 1.15-1.06 2.71t0.747 2.49q0.747 0.903 1.96 1.59 1.25 0.654 2.8 1.21 1.59 0.529 3.24 1.15 1.65 0.592 3.21 1.34 1.59 0.716 2.8 1.81 2.74 2.43 2.74 6.29 0 3.39-2.55 6.07-3.05 3.21-8.75 3.55zm2.12-22.4q0-2.33 1.71-2.99-0.965-1.71-3.49-1.96v-2.37q4.11 0.311 6.85 2.27 2.71 1.96 2.71 4.73 0 1.68-1.06 2.65-1.03 0.965-2.83 0.965-1.77 0-2.83-0.903t-1.06-2.4zm-6.48 17.5q0 2.33-1.71 2.99 0.965 1.71 3.49 1.96v2.37q-4.02-0.249-6.85-2.27-2.71-1.96-2.71-4.73 0-1.68 1.03-2.65 1.06-0.965 2.83-0.965 1.81 0 2.86 0.903 1.06 0.903 1.06 2.4z" style="paint-order:fill markers stroke"/><path d="m81.1 49.9v41.2c-2.23 1.06-4.72 2.56-6.57 4.32l-0.0892-44.2c-0.0022-1.1-0.415-1.86-1.25-2.27-0.353-0.187-0.768-0.332-1.25-0.436-0.457-0.125-0.924-0.311-1.4-0.56v-1.9h10.3zm7.32 27.9c-1.78 0-3.36-0.311-4.73-0.934l0.0311-2.77c1.02 0.685 2.09 1.03 3.21 1.03 1.14 0 2.13-0.259 2.96-0.778 0.851-0.54 1.57-1.35 2.15-2.43 1.2-2.26 1.81-5.59 1.81-9.99 0-6.89-1.29-11.1-3.86-12.6-0.768-0.436-1.5-0.654-2.21-0.654-0.685 0-1.23 0.104-1.65 0.311-0.394 0.187-0.747 0.425-1.06 0.716-0.374 0.353-0.83 0.965-1.37 1.84v-4.39c1.54-1.04 3.24-1.56 5.11-1.56 1.89 0 3.59 0.425 5.11 1.28 1.52 0.83 2.82 1.98 3.92 3.46 2.32 3.07 3.49 6.88 3.49 11.4 0 4.94-1.21 8.87-3.64 11.8-2.39 2.84-5.47 4.27-9.25 4.27z" style="paint-order:fill markers stroke"/><path d="m122 61q-8.34 3.02-8.34 8.81 0 2.33 1.12 3.77 1.12 1.4 3.33 1.4 2.24 0 3.89-1.65v2.96q-2.4 1.43-5.42 1.43t-4.86-0.592q-1.81-0.592-3.05-1.62-2.58-2.09-2.58-5.51 0-7.07 12.5-10.7 1.77-0.529 3.36-0.934zm-7.38-11.1q1.71 0.654 1.71 2.99 0 1.49-1.06 2.4t-2.86 0.903q-1.77 0-2.83-0.965-1.03-0.965-1.03-2.49 0-1.53 0.716-2.74 0.716-1.21 2.02-2.15 2.71-1.96 6.82-2.27v2.37q-2.52 0.249-3.49 1.96zm18.5 23.9q1.71 0 2.18-3.11l1.59 0.841q-0.311 3.02-1.68 4.61-1.34 1.59-4.3 1.59-2.3 0-3.42-0.841-1.81-1.37-2.93-4.14v-19.4q0-1.93-1.03-3.33-0.996-1.43-2.86-1.93v-2.55q10.6 0.56 10.6 11.1v14.7q0 2.4 1.9 2.4z" style="paint-order:fill markers stroke"/></g><g fill="#d48282" stroke-dashoffset=".34" stroke-linecap="round" stroke-linejoin="round" stroke-width=".92"><path d="m51.8 17.9q1.71-1.17 3.91-1.17 3.53 0 5.14 2.42 0.477 0.715 0.695 1.53v12.9q0 0.973 0.774 1.39 0.357 0.199 0.774 0.338 0.417 0.119 0.814 0.357v1.05h-7.6v-1.35q0-0.377 0.338-0.695 0.338-0.318 0.496-0.536 0.159-0.238 0.159-0.675v-11.5q0-3.18-2.78-3.18-1.63 0-2.72 1.05zm14.1 0.953q-1.51 0-2.7 0.973v-1.95q1.79-1.11 3.51-1.11 1.75 0 2.8 0.338 1.07 0.338 1.83 1.03 1.61 1.45 1.61 4.29v11.2q0 0.973 0.814 1.39 0.338 0.199 0.755 0.338 0.437 0.119 0.854 0.357v1.05h-7.64v-1.35q0-0.377 0.338-0.715 0.655-0.655 0.655-1.23v-11.6q0-3-2.82-3zm-15.7 14.8q0 0.933 0.814 1.35 0.357 0.199 0.794 0.357 0.457 0.139 0.894 0.377v1.05h-9.25v-1.05q0.417-0.238 0.854-0.377 0.457-0.159 0.814-0.357 0.834-0.437 0.834-1.35v-12.3q0-1.97-0.774-2.28-0.238-0.0993-0.516-0.179-0.874-0.199-1.27-0.477v-1.21h6.81z" style="paint-order:fill markers stroke"/><path d="m84.8 37.2q-3.4-0.338-5.58-2.88-2.44-2.84-2.44-7.33 0-4.53 2.44-7.37 2.2-2.56 5.58-2.9v1.55q-1.75 0.338-2.56 2.28-0.874 2.14-0.874 6.43 0 6.29 1.95 7.96 0.655 0.536 1.49 0.695zm1.65-1.53q3.51-0.596 3.51-8.68 0-6.41-2.06-8.08-0.655-0.516-1.45-0.655v-1.55q3.38 0.258 5.64 2.84 2.5 2.88 2.5 7.45 0 4.55-2.46 7.39-2.26 2.58-5.68 2.84z" style="paint-order:fill markers stroke"/><path d="m109 18.8q-1.65 0-3.02 1.29v-2.16q1.75-1.25 4.11-1.25 2.74 0 4.43 1.43 1.73 1.49 1.73 4.19v10.4q0 1.89 0.774 2.2 0.238 0.0993 0.516 0.159 0.755 0.199 1.17 0.536v1.05h-7.68v-1.35q0-0.377 0.338-0.695 0.338-0.318 0.496-0.536 0.159-0.238 0.159-0.675v-11.3q0-3.3-3.02-3.3zm-4.67 13.9q0 1.87 0.794 2.24 0.238 0.0993 0.516 0.199 0.814 0.258 1.19 0.536v1.05h-9.25v-1.05q0.357-0.278 0.894-0.457 0.556-0.179 0.794-0.278 0.258-0.0993 0.437-0.357 0.377-0.516 0.377-1.85v-11.5q0-1.97-0.774-2.28-0.238-0.0993-0.516-0.179-0.874-0.199-1.25-0.477v-1.21h6.79z" style="paint-order:fill markers stroke"/><path d="m128 32.7c0 1.22 0.265 1.95 0.794 2.2 0.159 0.0662 0.331 0.132 0.516 0.199 0.543 0.172 0.933 0.351 1.17 0.536v1.05h-9.23v-1.05c0.291-0.238 0.589-0.39 0.894-0.457 0.304-0.0662 0.576-0.159 0.814-0.278 0.543-0.291 0.814-1.03 0.814-2.2v-20.2c0-1.32-0.258-2.09-0.774-2.3-0.159-0.0662-0.331-0.126-0.516-0.179-0.582-0.132-0.993-0.291-1.23-0.477v-1.21h6.75zm1.65-7.88 3.53-3.3c0.913-0.847 1.37-1.47 1.37-1.87s-0.529-0.702-1.59-0.913c-0.291-0.0662-0.563-0.159-0.814-0.278v-1.25h8.82v1.17c-0.304 0.146-0.635 0.298-0.993 0.457-0.357 0.146-0.761 0.351-1.21 0.616-1.06 0.609-2.18 1.49-3.38 2.64l-2.26 2.18 11.8 22.6c0.344 0.582 0.715 0.94 1.11 1.07-4.14 0.0136-7.01 5.2-7.01 1.69v-1.05c0.649-0.304 0.986-0.768 1.01-1.39 0-0.172-0.0397-0.331-0.119-0.477l-10.3-20.7z" style="paint-order:fill markers stroke"/><path d="m147 24.9q0-5.72 2.86-6.43v-1.71q-3.71 0.338-5.72 3.12-1.89 2.6-1.89 6.77h11.2v-1.75zm2.78 10.6q-3.45-0.159-4.9-3.26-0.417-0.894-0.715-1.83l-1.71 0.635q1.11 4.15 4.55 5.58 1.21 0.496 2.78 0.596zm5.38-9.77q0 8.54-3.73 9.61v1.83q3.89-0.437 6.18-3.24 2.28-2.76 2.28-6.93 0-4.39-2.28-7.21-2.3-2.84-6.1-3.08v1.65q3.65 0.437 3.65 7.37z" style="paint-order:fill markers stroke"/><path d="m169 29.5c-0.437-1.24-0.841-2.38-1.21-3.42-0.384-1.05-0.721-1.97-1.01-2.78-0.622-1.72-0.933-2.79-0.933-3.22 0-0.437 0.0728-0.715 0.218-0.834 0.146-0.132 0.331-0.232 0.556-0.298 0.212-0.0794 0.45-0.146 0.715-0.199 0.265-0.0662 0.516-0.159 0.755-0.278v-1.21h-7.03v1.21c0.212 0.132 0.43 0.232 0.655 0.298 0.212 0.0662 0.417 0.139 0.616 0.218 0.477 0.212 0.807 0.569 0.993 1.07l4.55 12zm7.66 10c-3.45 2.18-4.03-0.0155-4.86-2.66l6.81-17c0.225-0.582 0.788-0.98 1.69-1.19 0.212-0.053 0.41-0.119 0.596-0.199v-1.21h-9.09v1.17c0.278 0.106 0.556 0.199 0.834 0.278 0.278 0.0662 0.529 0.146 0.755 0.238 0.516 0.185 0.774 0.437 0.774 0.755 0 0.185-0.271 0.986-0.814 2.4l-0.0199 0.0199c-0.794 2-1.58 3.99-2.34 5.98-0.781 1.97-1.57 3.95-2.36 5.94l2.32 6.04c1.92 4.67 2.25 1.04 8.1 1.06-0.101-0.608 0.0797-2.16-0.397-2.16-0.477 0-1.11 0.0475-1.35 0.14-0.248 0.092-0.448 0.28-0.635 0.397z" style="paint-order:fill markers stroke"/><path d="m190 35.7q1.49-0.218 2.38-1.09 0.913-0.894 0.913-2.06t-0.477-1.81q-0.457-0.655-1.23-1.11-0.755-0.477-1.73-0.834-0.973-0.377-1.99-0.735-1.01-0.377-1.99-0.834-0.973-0.457-1.75-1.09-1.69-1.41-1.69-3.69 0-2.05 1.55-3.63 1.75-1.83 4.57-2.05v1.57q-1.15 0.218-1.85 0.953-0.675 0.735-0.675 1.73t0.477 1.59q0.477 0.576 1.25 1.01 0.794 0.417 1.79 0.774 1.01 0.338 2.06 0.735 1.05 0.377 2.05 0.854 1.01 0.457 1.79 1.15 1.75 1.55 1.75 4.01 0 2.16-1.63 3.87-1.95 2.05-5.58 2.26zm1.35-14.3q0-1.49 1.09-1.91-0.616-1.09-2.22-1.25v-1.51q2.62 0.199 4.37 1.45 1.73 1.25 1.73 3.02 0 1.07-0.675 1.69-0.655 0.616-1.81 0.616-1.13 0-1.81-0.576t-0.675-1.53zm-4.13 11.2q0 1.49-1.09 1.91 0.616 1.09 2.22 1.25v1.51q-2.56-0.159-4.37-1.45-1.73-1.25-1.73-3.02 0-1.07 0.655-1.69 0.675-0.616 1.81-0.616 1.15 0 1.83 0.576 0.675 0.576 0.675 1.53z" style="paint-order:fill markers stroke"/></g><g transform="matrix(2 -.289 .289 2 12.6 95.8)" fill="#cb6c6c" stroke-width=".122"><path d="m11.9 37.5c-5.22-2.38-9.36-7.37-10.8-13.1-1.04-4.07-0.536-9.28 1.24-12.8 3.71-7.32 14.6-9.72 22.4-4.96l1.6 0.969 1.8-1.36c3.38-2.56 7.68-4.34 13.2-5.44 4.31-0.869 12.7-0.866 17 0.00754 5.5 1.11 9.97 2.9 13.2 5.29l1.67 1.23 1.31-0.938c2.95-2.12 6.25-3.08 10.6-3.09 4.91-0.00879 8.21 1.24 10.9 4.09 2.91 3.14 4.03 6.52 4 12-0.0158 3.21-0.102 3.88-0.747 5.78-0.401 1.18-0.938 2.53-1.19 3l-0.464 0.849-2.57-2.34 0.601-1.7c0.88-2.49 0.878-7.23-0.0035-9.43-1.21-3.03-4.11-5.37-7.52-6.09-3.7-0.779-7.91 0.0558-10.5 2.08l-0.646 0.503 2.27 3.17-3.3 0.076c-3.26 0.0752-3.31 0.0677-4.39-0.704-3.87-2.76-8-3.59-12.4-2.47-2.89 0.739-4.78 1.89-7.17 4.35-1.12 1.16-2.15 2.11-2.29 2.11-0.139 0-0.734-0.612-1.32-1.36-4.71-5.98-13.3-7.33-19.6-3.09l-1.82 1.22h-3.09c-1.7 0-3.09-0.0908-3.09-0.202 5.4e-4 -0.111 0.482-0.925 1.07-1.81 0.588-0.884 0.981-1.69 0.874-1.8-0.495-0.48-3.02-1.54-4.31-1.81-5.73-1.2-10.9 1.01-13.1 5.62-0.801 1.68-0.836 1.89-0.822 5.11 0.0125 3 0.0938 3.57 0.761 5.34 1.45 3.84 3.48 6.6 6.17 8.4 1.54 1.03 1.69 1.22 1.98 2.5 0.172 0.763 0.293 1.41 0.269 1.43-0.0243 0.023-0.813-0.308-1.75-0.736z"/><path d="m92.4 42.5c-0.749-0.168-1.54-0.294-2.14-0.81-0.691-0.532-1.41-1.14-1.74-1.97-0.103-0.866 0.771-1.7 1.62-1.63 0.896 0.179 1.27 1.19 2.14 1.43 0.713 0.292 1.43-0.26 1.68-0.911 0.53-1.24 0.49-2.63 0.387-3.95 0.0161-0.959-0.976-0.558-1.37-0.093-1.5 1.24-3.2 2.21-4.97 3-0.429 0.308-1.43 0.374-0.944-0.413 0.28-0.754 0.169-1.72 0.884-2.24 0.66-0.487 1.38-0.888 1.99-1.45 0.761-0.668 1.53-1.36 2.12-2.18 0.267-0.761-0.98-0.701-1.47-0.755-0.688-0.0403-1.34-0.601-1.29-1.33-0.0478-0.815 0.679-1.46 1.46-1.52 1.89-0.189 3.66 0.983 4.71 2.48 1.52 2.16 2.11 4.93 1.76 7.54-0.243 1.78-1.13 3.65-2.86 4.41-0.621 0.255-1.31 0.414-1.98 0.399z"/><path d="m51.9 43.3c-0.493-0.594 0.124-1.21 1.21-1.21 0.482 0 1.03 0.182 1.21 0.404 0.493 0.594-0.124 1.21-1.21 1.21-0.482 0-1.03-0.182-1.21-0.404z"/><path d="m46 43.3c-0.504-0.607 0.15-1.26 1.16-1.16 0.981 0.099 1.6 0.907 0.992 1.3-0.612 0.39-1.78 0.315-2.15-0.138z"/></g><path d="m120 127c-3.54 0.471-6.48 3.89-8.86 6.01l2.82 3.18c2.06-1.83-2.03-3.61 6.89-4.78 8.08-0.609 5.43 1.97 8.07 3.14l1.7-3.9c-5.3-2.32-6.9-4.14-10.6-3.65zm-24.2 50.2c10.4-3.02 15.2-6.86 17.5-14.3 2.34-7.28 2.81-12.9 1.73-20.7-0.746-5.36-1.22-7.01-2.39-8.34-3.85-4.37-10.7-5.01-27.5-2.59-17.9 2.6-24.6 4.98-26.7 9.52-2.21 4.74-0.232 17.2 4.24 26.6 3.63 7.66 11 11.6 21.6 11.4 5.89-0.0729 5.85-0.0678 11.4-1.67zm78.1-10.7c10.4-4.36 14.3-9.81 14.9-21.2 0.404-6.66-1.18-18.2-2.89-21-1.63-2.72-4.53-4.35-9.01-5.06-5.54-0.883-31.1 2.32-37.6 4.71-6.78 2.5-9.13 4.33-10.5 8.19-1.05 2.95-1.03 3.8 0.209 9.92 0.744 3.68 2.1 8.45 3.02 10.6 2.53 5.9 5.83 10.8 10.8 14 3.74 2.43 8.56 2.99 13 3.12 6.09 0.178 14.3-1.67 18-3.21z" color="#000000" color-rendering="auto" dominant-baseline="auto" fill="#cc6c6c" image-rendering="auto" shape-rendering="auto" solid-color="#000000" stop-color="#000000" stroke-width=".502" style="font-feature-settings:normal;font-variant-alternates:normal;font-variant-caps:normal;font-variant-east-asian:normal;font-variant-ligatures:normal;font-variant-numeric:normal;font-variant-position:normal;font-variation-settings:normal;inline-size:0;isolation:auto;mix-blend-mode:normal;paint-order:markers stroke fill;shape-margin:0;shape-padding:0;text-decoration-color:#000000;text-decoration-line:none;text-decoration-style:solid;text-indent:0;text-orientation:mixed;text-transform:none;white-space:normal"/><g><path d="m95.4 178c9.33-2.7 13.5-6.13 15.7-12.8 2.1-6.51 2.52-11.5 1.54-18.5-0.667-4.79-1.09-6.27-2.14-7.46-3.44-3.9-9.6-4.48-24.5-2.31-16 2.32-22 4.45-23.8 8.51-1.98 4.24-0.208 15.4 3.79 23.8 3.25 6.85 9.86 10.4 19.3 10.2 5.26-0.0652 5.23-0.0606 10.2-1.49z" fill="#d48282" stroke-width=".273"/><path d="m172 167c8.54-3.72 11.7-8.42 12.2-18.3 0.288-5.77-1.09-15.8-2.52-18.2-1.36-2.37-3.75-3.8-7.44-4.45-4.56-0.802-25.6 1.81-30.9 3.83-5.56 2.12-7.48 3.7-8.58 7.03-0.841 2.55-0.821 3.29 0.238 8.61 0.636 3.2 1.79 7.34 2.56 9.21 2.12 5.14 4.77 9.39 8.95 12.2 3.06 2.08 7.04 2.65 10.7 2.79 5.01 0.19 11.8-1.35 14.8-2.67z" fill="#d48282" stroke-width=".262"/><text transform="rotate(-8.2)" x="138.00378" y="177.13612" fill="#cc6c6c" font-family="'Nova Round'" font-size="28.6px" stroke-dashoffset=".34" stroke-linecap="round" stroke-linejoin="round" stroke-width=".92" text-align="center" text-anchor="middle" style="line-height:1.2;paint-order:fill markers stroke" xml:space="preserve"><tspan x="138.00378" y="177.13612" fill="#cc6c6c" font-family="'Fira Mono'" stroke-width=".92">&lt;/&gt;</tspan></text></g><path d="m186 54.3q0-8.97-4.48-10.1v-2.68q5.82 0.529 8.97 4.89 2.96 4.08 2.96 10.6h-17.6v-2.74zm-4.36 16.7q5.42-0.249 7.69-5.11 0.654-1.4 1.12-2.86l2.68 0.996q-1.74 6.51-7.13 8.75-1.9 0.778-4.36 0.934zm-8.44-15.3q0 13.4 5.85 15.1v2.86q-6.1-0.685-9.68-5.07-3.58-4.33-3.58-10.9 0-6.88 3.58-11.3 3.61-4.45 9.56-4.83v2.58q-5.73 0.685-5.73 11.6z" fill="#cb6c6c" stroke-dashoffset=".34" stroke-linecap="round" stroke-linejoin="round" stroke-width=".92" style="paint-order:fill markers stroke"/><path d="m143 53.3q0.872-2.15 3.89-2.46v-2.52q-4.14 0.218-6.6 2.74-2.15 2.15-2.15 4.95 0 2.86 2.21 3.89 0.747 0.342 2.02 0.342 1.28 0 2.3-0.934 0.996-0.965 0.996-2.21t-0.28-1.84q-0.28-0.592-0.685-0.965-0.405-0.374-0.872-0.592-0.467-0.218-0.841-0.405zm3.89 24.3q-3.8-0.56-5.6-4.79-0.529-1.18-0.934-2.4l-2.58 0.778q1.74 6.01 5.7 8.03 1.46 0.778 3.42 1.06zm9.09-13.3q0 12.2-6.51 13.3v2.83q5.88-0.125 9.81-4.2 4.14-4.39 4.14-11.6 0-6.38-3.86-11.1-3.98-4.86-10.1-5.29v2.74q4.67 1.09 6.04 7.91 0.467 2.33 0.467 5.39z" fill="#cb6c6c" stroke-dashoffset=".34" stroke-linecap="round" stroke-linejoin="round" stroke-width=".92" style="paint-order:fill markers stroke"/><g fill="#d48282" stroke-dashoffset=".34" stroke-linecap="round" stroke-linejoin="round" stroke-width=".92"><path d="m51.5 227q1.74-0.255 2.78-1.27 1.06-1.04 1.06-2.41t-0.555-2.11q-0.532-0.764-1.43-1.3-0.879-0.555-2.01-0.972-1.13-0.44-2.31-0.856-1.18-0.44-2.31-0.972-1.13-0.532-2.04-1.27-1.97-1.64-1.97-4.3 0-2.38 1.8-4.23 2.04-2.13 5.32-2.38v1.83q-1.34 0.255-2.15 1.11-0.787 0.856-0.787 2.01t0.555 1.85q0.555 0.671 1.46 1.18 0.926 0.486 2.08 0.902 1.18 0.393 2.41 0.856 1.23 0.44 2.38 0.995 1.18 0.532 2.08 1.34 2.04 1.8 2.04 4.67 0 2.52-1.9 4.51-2.27 2.38-6.5 2.64zm1.57-16.6q0-1.74 1.27-2.22-0.717-1.27-2.59-1.46v-1.76q3.05 0.231 5.09 1.69 2.01 1.46 2.01 3.52 0 1.25-0.787 1.97-0.764 0.717-2.11 0.717-1.32 0-2.11-0.671t-0.787-1.78zm-4.81 13q0 1.74-1.27 2.22 0.717 1.27 2.59 1.46v1.76q-2.98-0.185-5.09-1.69-2.01-1.46-2.01-3.52 0-1.25 0.764-1.97 0.787-0.717 2.11-0.717 1.34 0 2.13 0.671 0.787 0.671 0.787 1.78z" style="paint-order:fill markers stroke"/><path d="m72.6 229q-3.96-0.393-6.5-3.35-2.85-3.31-2.85-8.54 0-5.28 2.85-8.58 2.57-2.98 6.5-3.38v1.8q-2.04 0.393-2.98 2.66-1.02 2.5-1.02 7.5 0 7.33 2.27 9.28 0.764 0.625 1.74 0.81zm1.92-1.78q4.1-0.694 4.1-10.1 0-7.47-2.41-9.42-0.764-0.602-1.69-0.764v-1.8q3.93 0.301 6.57 3.31 2.92 3.35 2.92 8.68 0 5.3-2.87 8.61-2.64 3.01-6.62 3.31z" style="paint-order:fill markers stroke"/><path d="m100 227q-1.9 0-3.42-1.48v2.66q2.08 1.3 5.14 1.3 5.04 0 6.27-3.54 0.416-1.23 0.416-2.96v-13.1q0-1.2 0.902-1.69 0.393-0.208 0.879-0.324 0.486-0.139 0.926-0.416v-1.41h-7.66v17.4q0 3.61-3.45 3.61zm-5.34-17.1q0-1.23 0.926-1.69 0.416-0.208 0.926-0.324 0.509-0.139 1.02-0.416v-1.41h-7.8v19q0 1.2-0.949 1.67-0.416 0.208-0.902 0.347-0.486 0.139-0.926 0.416v1.37h7.38l0.324-2.45z" style="paint-order:fill markers stroke"/><path d="m122 211v12.8q0 2.08 1.02 2.48 0.324 0.139 0.694 0.231 1.23 0.347 1.74 0.625v1.23h-11.2v-1.23q0.44-0.278 0.926-0.44 0.486-0.185 0.902-0.416 0.949-0.486 0.949-1.57v-13.4q0-2.66-0.44-3.08-0.416-0.416-0.833-0.602-0.393-0.185-0.833-0.301-0.44-0.139-0.764-0.393v-1.41h7.52zm7.08 0.74q-1.02 0-1.6-0.486-0.578-0.486-0.578-1.2t0.602-1.41q-0.208-0.139-0.532-0.139-1.57 0.0231-3.05 2.22v-3.56q1.71-2.13 3.89-2.13 2.5 0 3.35 2.17 0.278 0.671 0.278 1.8t-0.671 1.94q-0.671 0.787-1.69 0.787z" style="paint-order:fill markers stroke"/><path d="m148 209q-0.648-1.6-2.89-1.83v-1.87q3.08 0.162 4.91 2.04 1.6 1.6 1.6 3.68 0 2.13-1.64 2.89-0.555 0.255-1.5 0.255t-1.71-0.694q-0.74-0.717-0.74-1.64 0-0.926 0.208-1.37 0.208-0.44 0.509-0.717 0.301-0.278 0.648-0.44 0.347-0.162 0.625-0.301zm-2.89 18.1q2.82-0.416 4.16-3.56 0.393-0.879 0.694-1.78l1.92 0.578q-1.3 4.47-4.23 5.97-1.09 0.578-2.55 0.787zm-6.76-9.9q0 9.07 4.84 9.9v2.11q-4.37-0.0926-7.29-3.12-3.08-3.26-3.08-8.63 0-4.74 2.87-8.24 2.96-3.61 7.5-3.93v2.04q-3.47 0.81-4.49 5.88-0.347 1.74-0.347 4z" style="paint-order:fill markers stroke"/><path d="m161 215q0-6.66 3.33-7.5v-1.99q-4.33 0.393-6.66 3.63-2.2 3.03-2.2 7.89h13.1v-2.04zm3.24 12.4q-4.03-0.185-5.72-3.79-0.486-1.04-0.833-2.13l-1.99 0.74q1.3 4.84 5.3 6.5 1.41 0.578 3.24 0.694zm6.27-11.4q0 9.95-4.35 11.2v2.13q4.54-0.509 7.2-3.77 2.66-3.22 2.66-8.08 0-5.11-2.66-8.4-2.68-3.31-7.1-3.59v1.92q4.26 0.509 4.26 8.58z" style="paint-order:fill markers stroke"/><path d="m189 227q1.74-0.255 2.78-1.27 1.06-1.04 1.06-2.41t-0.555-2.11q-0.532-0.764-1.43-1.3-0.879-0.555-2.01-0.972-1.13-0.44-2.31-0.856-1.18-0.44-2.31-0.972-1.13-0.532-2.04-1.27-1.97-1.64-1.97-4.3 0-2.38 1.8-4.23 2.04-2.13 5.32-2.38v1.83q-1.34 0.255-2.15 1.11-0.787 0.856-0.787 2.01t0.555 1.85q0.555 0.671 1.46 1.18 0.926 0.486 2.08 0.902 1.18 0.393 2.41 0.856 1.23 0.44 2.38 0.995 1.18 0.532 2.08 1.34 2.04 1.8 2.04 4.67 0 2.52-1.9 4.51-2.27 2.38-6.5 2.64zm1.57-16.6q0-1.74 1.27-2.22-0.717-1.27-2.59-1.46v-1.76q3.05 0.231 5.09 1.69 2.01 1.46 2.01 3.52 0 1.25-0.787 1.97-0.764 0.717-2.11 0.717-1.32 0-2.11-0.671-0.787-0.671-0.787-1.78zm-4.81 13q0 1.74-1.27 2.22 0.717 1.27 2.59 1.46v1.76q-2.98-0.185-5.09-1.69-2.01-1.46-2.01-3.52 0-1.25 0.764-1.97 0.787-0.717 2.11-0.717 1.34 0 2.13 0.671 0.787 0.671 0.787 1.78z" style="paint-order:fill markers stroke"/></g><g fill="#cb6c6c" stroke-dashoffset=".34" stroke-linecap="round" stroke-linejoin="round" stroke-width=".92"><path d="m106 199c0 0.499 0.217 0.859 0.652 1.08 0.202 0.106 0.419 0.202 0.652 0.286 0.244 0.0743 0.477 0.175 0.7 0.302v0.843h-7.41v-0.843c0.233-0.127 0.467-0.228 0.7-0.302 0.244-0.0849 0.461-0.18 0.652-0.286 0.435-0.223 0.652-0.583 0.652-1.08v-17.4c0-0.573-0.212-0.955-0.636-1.15-0.191-0.0955-0.408-0.17-0.652-0.223-0.244-0.0637-0.493-0.159-0.748-0.286v-0.971l5.44-3.2zm3.71-11.8c-0.87 0-1.67 0.329-2.39 0.987v-1.73c0.933-0.636 2.02-0.955 3.25-0.955 1.42 0 2.59 0.382 3.5 1.15 0.987 0.827 1.48 1.95 1.48 3.36v9.02c0 0.488 0.223 0.849 0.668 1.08 0.191 0.106 0.403 0.202 0.636 0.286 0.233 0.0743 0.456 0.175 0.668 0.302v0.843h-6.16v-1.15c0-0.191 0.0424-0.334 0.127-0.43 0.0849-0.106 0.175-0.207 0.27-0.302 0.265-0.286 0.398-0.594 0.398-0.923v-8.8c0-1.82-0.817-2.74-2.45-2.74z" style="paint-order:fill markers stroke"/><path d="m128 201q-1.3 0-2.35-1.02v1.83q1.43 0.891 3.53 0.891 3.47 0 4.31-2.43 0.286-0.843 0.286-2.04v-9.02q0-0.827 0.621-1.16 0.27-0.143 0.605-0.223 0.334-0.0955 0.636-0.286v-0.971h-5.27v11.9q0 2.48-2.37 2.48zm-3.68-11.8q0-0.843 0.636-1.16 0.286-0.143 0.636-0.223 0.35-0.0955 0.7-0.286v-0.971h-5.36v13.1q0 0.827-0.652 1.15-0.286 0.143-0.621 0.239-0.334 0.0955-0.636 0.286v0.939h5.08l0.223-1.69z" style="paint-order:fill markers stroke"/><path d="m151 200q-0.987 1.05-2.28 1.59-1.27 0.541-2.48 0.541-1.19 0-2.08-0.239v-1.58q0.652 0.446 1.48 0.446 3.71 0 3.71-6.75 0-5.38-1.99-6.44-0.636-0.334-1.3-0.334t-1.08 0.302q-0.414 0.286-0.811 0.652v-1.86q1.13-0.668 2.34-0.668 1.23 0 2.4 0.493 1.18 0.493 2.12 1.51 2.15 2.28 2.15 6.25 0 3.77-2.16 6.08zm-11.8 1.83q0.223-1.56 0.223-3.61v-16.4q0-0.955-0.621-1.32-0.286-0.175-0.621-0.27-0.334-0.111-0.652-0.302v-0.971h5.28v22.5q-0.811-0.334-1.18-0.748-0.446 0.207-0.748 0.589t-0.398 0.493z" style="paint-order:fill markers stroke"/></g></g></svg>
