<?xml version="1.0" encoding="UTF-8" standalone="no"?>
<svg
   id="oa"
   enable-background="new 0 0 512 512"
   version="1.1"
   viewBox="0 0 240 240"
   xml:space="preserve"
   sodipodi:docname="logo_head.svg"
   inkscape:version="1.1 (c4e8f9ed74, 2021-05-24)"
   xmlns:inkscape="http://www.inkscape.org/namespaces/inkscape"
   xmlns:sodipodi="http://sodipodi.sourceforge.net/DTD/sodipodi-0.dtd"
   xmlns:xlink="http://www.w3.org/1999/xlink"
   xmlns="http://www.w3.org/2000/svg"
   xmlns:svg="http://www.w3.org/2000/svg"><defs
     id="defs85" /><sodipodi:namedview
     id="namedview83"
     pagecolor="#ffffff"
     bordercolor="#666666"
     borderopacity="1.0"
     inkscape:pageshadow="2"
     inkscape:pageopacity="0.0"
     inkscape:pagecheckerboard="0"
     showgrid="false"
     inkscape:current-layer="oa"
     inkscape:snap-global="false" /><use
     transform="matrix(5.13,0,0,5.13,504,-245)"
     width="100%"
     height="100%"
     fill="#d40000"
     stroke-width=".195"
     xlink:href="#use9029"
     id="use2" /><use
     transform="matrix(2.02 0 0 2.02 -91.8 120)"
     width="100%"
     height="100%"
     fill="#d40000"
     stroke-width=".27"
     xlink:href="#use9029"
     id="use4" /><g
     fill="#cb6c6c"
     stroke-dashoffset="0.34"
     stroke-linecap="round"
     stroke-linejoin="round"
     stroke-width="0.92"
     id="g12"
     transform="matrix(1.09,0,0,1.09,-9.39,-9.12)"
     style="fill:#face40;fill-opacity:0.5" /><g
     id="g667673"
     style="opacity:1;fill:#333333;fill-opacity:1"><path
       d="m 31.541769,39.788228 c 1.608424,-1.10051 3.447296,-1.65077 5.516613,-1.65077 3.320314,0 5.737654,1.13814 7.252018,3.41438 0.448666,0.67252 0.775524,1.39209 0.980574,2.15868 v 18.20058 c 0,0.9152 0.364013,1.56893 1.092036,1.96116 0.335793,0.18717 0.699806,0.34613 1.092035,0.47688 0.392229,0.112 0.775054,0.27983 1.148471,0.50368 v 1.48146 H 37.900689 v -1.90472 c 0,-0.35461 0.158963,-0.68147 0.476884,-0.98057 0.317921,-0.29912 0.55119,-0.5512 0.699805,-0.75624 0.14956,-0.22387 0.224332,-0.54133 0.224332,-0.95236 v -16.22534 c 0,-2.9911 -1.307433,-4.48665 -3.922297,-4.48665 -1.533176,0 -2.812391,0.49382 -3.837644,1.48145 z m 19.893668,1.34458 c -1.420305,0 -2.690113,0.45759 -3.809426,1.37279 v -2.75125 c 1.683672,-1.04406 3.334423,-1.5661 4.952254,-1.5661 1.646049,0 2.962887,0.15902 3.950515,0.47689 1.006441,0.31793 1.867088,0.80233 2.581944,1.45323 1.514364,1.36388 2.271547,3.38145 2.271547,6.05275 v 28.03724 c 0,0.9152 0.382824,1.56891 1.148471,1.96114 0.317923,0.18719 0.672999,0.34615 1.065228,0.47688 0.411041,0.11201 0.812679,0.27983 1.204908,0.5037 v 1.48144 H 54.021614 v -1.90472 c 0,-0.35459 0.158963,-0.69087 0.476884,-1.0088 0.616093,-0.61608 0.924138,-1.19455 0.924138,-1.73539 v -28.6016 c 0,-2.82179 -1.326244,-4.23268 -3.978734,-4.23268 z m -22.151105,20.88129 c 0,0.87759 0.382823,1.51249 1.148471,1.90472 0.335795,0.18717 0.709213,0.35508 1.120253,0.50368 0.429854,0.1307 0.850302,0.30805 1.261344,0.53191 v 1.48145 H 19.76359 v -1.48145 c 0.392229,-0.22386 0.793865,-0.40116 1.204906,-0.53191 0.429854,-0.14958 0.812678,-0.31746 1.148473,-0.50368 0.784458,-0.41105 1.176687,-1.04596 1.176687,-1.90472 v -17.35405 c 0,-1.85297 -0.364011,-2.92526 -1.092034,-3.21685 -0.223864,-0.0935 -0.466537,-0.17753 -0.728024,-0.25256 -0.822083,-0.18717 -1.419364,-0.4115 -1.79184,-0.67299 v -1.70718 h 9.608218 z"
       style="fill:#333333;fill-opacity:1;stroke:none;stroke-width:1.0028;stroke-linecap:round;stroke-linejoin:round;stroke-dashoffset:0.34;paint-order:fill markers stroke"
       id="path14"
       sodipodi:nodetypes="csccscccccsscssscccccsccsscccccsssscccccccccccsscccccc" /><path
       d="m 75.757605,67.032228 q -4.797054,-0.47689 -7.872813,-4.06339 -3.442592,-4.00696 -3.442592,-10.3419 0,-6.39136 3.442592,-10.39831 3.103977,-3.6119 7.872813,-4.0916 v 2.18688 q -2.469071,0.47689 -3.6119,3.21684 -1.233124,3.01933 -1.233124,9.07209 0,8.87454 2.751251,11.23075 0.92414,0.75624 2.102239,0.98057 z m 2.327983,-2.15869 q 4.952253,-0.84089 4.952253,-12.2466 0,-9.04385 -2.90645,-11.40005 -0.92414,-0.72802 -2.045803,-0.92415 v -2.18688 q 4.768836,0.36402 7.957466,4.00694 3.527254,4.06339 3.527254,10.5112 0,6.41959 -3.470818,10.42654 -3.18863,3.64011 -8.013902,4.00696 z"
       style="fill:#333333;fill-opacity:1;stroke:none;stroke-width:1.0028;stroke-linecap:round;stroke-linejoin:round;stroke-dashoffset:0.34;paint-order:fill markers stroke"
       id="path16" /><path
       d="m 108.22779,41.216018 q -2.32798,0 -4.26091,1.82007 v -3.04755 q 2.46907,-1.76362 5.7988,-1.76362 3.86586,0 6.25028,2.01759 2.44086,2.10224 2.44086,5.91166 v 14.67335 q 0,2.6666 1.09202,3.10397 0.33581,0.14014 0.72803,0.22433 1.06523,0.28076 1.65075,0.75625 v 1.48144 h -10.8357 v -1.90472 q 0,-0.53191 0.47688,-0.98057 0.47689,-0.44866 0.6998,-0.75624 0.22433,-0.3358 0.22433,-0.95235 v -15.94316 q 0,-4.65597 -4.26091,-4.65597 z m -6.58889,19.6115 q 0,2.63837 1.12025,3.1604 0.33579,0.14014 0.72803,0.28077 1.14846,0.36402 1.67898,0.75624 v 1.48145 H 92.115342 v -1.48145 q 0.503681,-0.39222 1.261335,-0.64478 0.784466,-0.25254 1.120253,-0.39223 0.364014,-0.14013 0.616572,-0.50368 0.531908,-0.72803 0.531908,-2.61016 v -16.22534 q 0,-2.77946 -1.092044,-3.21685 -0.335787,-0.14014 -0.728029,-0.25256 -1.233126,-0.28076 -1.763618,-0.67299 v -1.70718 h 9.580011 z"
       style="fill:#333333;fill-opacity:1;stroke:none;stroke-width:1.0028;stroke-linecap:round;stroke-linejoin:round;stroke-dashoffset:0.34;paint-order:fill markers stroke"
       id="path18" /><path
       d="m 135.03486,60.827518 c 0,1.72128 0.37389,2.75124 1.12026,3.10397 0.22433,0.0935 0.46701,0.18624 0.72802,0.28076 0.76612,0.24269 1.31638,0.49523 1.65075,0.75624 v 1.48146 h -13.02258 v -1.48146 c 0.41057,-0.33578 0.83101,-0.55024 1.26133,-0.64476 0.42891,-0.0935 0.81268,-0.22435 1.14848,-0.39224 0.76611,-0.41058 1.14846,-1.45323 1.14846,-3.10397 v -28.50015 c 0,-1.86239 -0.36401,-2.94878 -1.09202,-3.24507 -0.22433,-0.0933 -0.46701,-0.17771 -0.72803,-0.25256 -0.82113,-0.18623 -1.40102,-0.41056 -1.73541,-0.67299 v -1.70718 h 9.52357 z m 2.32799,-11.11789 4.98048,-4.65596 c 1.28814,-1.19503 1.93292,-2.07401 1.93292,-2.63838 0,-0.56436 -0.74636,-0.99046 -2.24333,-1.28814 -0.41056,-0.0935 -0.79433,-0.22433 -1.14847,-0.39225 v -1.76361 h 12.44412 v 1.65074 c -0.42891,0.206 -0.89591,0.42045 -1.40102,0.64478 -0.50368,0.206 -1.07369,0.49524 -1.70718,0.86911 -1.49556,0.85926 -3.07577,2.10226 -4.76884,3.72478 l -3.18864,3.07576 16.64861,31.8863 c 0.48534,0.82115 1.00879,1.32625 1.5661,1.50966 -5.84112,0.0192 -9.89041,7.33667 -9.89041,2.38442 v -1.48144 c 0.91568,-0.42891 1.39115,-1.08356 1.42502,-1.96115 0,-0.24266 -0.0561,-0.467 -0.16791,-0.67299 l -14.53226,-29.20559 z"
       style="fill:#333333;fill-opacity:1;stroke:none;stroke-width:1.0028;stroke-linecap:round;stroke-linejoin:round;stroke-dashoffset:0.34;paint-order:fill markers stroke"
       id="path20" /><path
       d="m 161.84193,49.822508 q 0,-8.07035 4.03518,-9.07209 v -2.41262 q -5.23443,0.47688 -8.07034,4.40199 -2.66661,3.66834 -2.66661,9.55178 h 15.80208 v -2.46906 z m 3.92231,14.95553 q -4.86761,-0.22434 -6.91341,-4.59953 -0.58834,-1.26136 -1.00879,-2.58196 l -2.41263,0.89592 q 1.5661,5.85524 6.41958,7.87281 1.70718,0.69982 3.92229,0.8409 z m 7.59063,-13.78449 q 0,12.04908 -5.26265,13.55874 v 2.58194 q 5.4884,-0.61656 8.71935,-4.57131 3.21686,-3.89408 3.21686,-9.77752 0,-6.19384 -3.21686,-10.17259 -3.24506,-4.00695 -8.60647,-4.34556 v 2.32799 q 5.14977,0.61655 5.14977,10.39831 z"
       style="fill:#333333;fill-opacity:1;stroke:none;stroke-width:1.0028;stroke-linecap:round;stroke-linejoin:round;stroke-dashoffset:0.34;paint-order:fill markers stroke"
       id="path22" /><path
       d="m 190.67451,56.435338 c -0.61656,-1.74951 -1.18657,-3.35792 -1.70718,-4.82525 -0.54179,-1.48146 -1.01726,-2.77948 -1.42502,-3.92231 -0.87757,-2.42674 -1.31636,-3.9364 -1.31636,-4.5431 0,-0.61655 0.10275,-1.00879 0.30758,-1.17669 0.20598,-0.18622 0.46699,-0.32732 0.78445,-0.42045 0.29912,-0.112 0.6349,-0.20598 1.00879,-0.28076 0.37389,-0.0933 0.72803,-0.22433 1.06524,-0.39223 v -1.70718 h -9.91862 v 1.70718 c 0.29911,0.18625 0.60668,0.32733 0.92414,0.42045 0.29912,0.0935 0.58834,0.19611 0.86911,0.30758 0.67301,0.2991 1.1386,0.8028 1.40102,1.50966 l 6.41958,16.93077 z m 12.62275,14.109 c -4.86761,3.07575 -7.50119,-0.0218 -8.67223,-3.753 l 9.60822,-23.98528 c 0.31745,-0.82113 1.11179,-1.38266 2.38442,-1.67895 0.2991,-0.0748 0.57846,-0.16791 0.84088,-0.28077 v -1.7072 h -12.82506 v 1.65077 c 0.39224,0.14957 0.78446,0.28076 1.17668,0.39222 0.39225,0.0933 0.74637,0.206 1.06524,0.33579 0.72803,0.26101 1.09204,0.61657 1.09204,1.06523 0,0.26102 -0.38237,1.39114 -1.14848,3.38615 l -0.0281,0.0281 c -1.12025,2.82179 -2.22921,5.62947 -3.30149,8.43718 -1.10192,2.77945 -2.25945,4.44207 -3.37406,7.24977 0,0 -0.8517,3.34437 1.28043,6.04582 8.40581,10.65029 7.02697,5.0743 15.28073,5.10251 -0.14249,-0.85782 0.11237,-3.04754 -0.56013,-3.04754 -0.67299,0 -1.56608,0.067 -1.9047,0.19754 -0.34991,0.12979 -0.63209,0.39504 -0.89593,0.56012 z"
       style="fill:#333333;fill-opacity:1;stroke:none;stroke-width:1.0028;stroke-linecap:round;stroke-linejoin:round;stroke-dashoffset:0.34;paint-order:fill markers stroke"
       id="path24"
       sodipodi:nodetypes="cccsccccccccccccccccccccccsccccscsccc" /><path
       d="m 224.81434,48.543018 q -0.17444,-1.96243 -1.2475,-3.18954 -1.10012,-1.25882 -2.62318,-1.3452 -1.52304,-0.0864 -2.39958,0.48899 -0.88942,0.54841 -1.54101,1.52442 -0.679,0.95085 -1.21755,2.19798 -0.56453,1.24302 -1.10749,2.54494 -0.56727,1.29134 -1.23681,2.53757 -0.66902,1.23712 -1.55341,2.20515 -1.96697,2.10305 -4.94516,1.93416 -2.67775,-0.15194 -4.62674,-2.29353 -2.26076,-2.42147 -2.33922,-6.1213 l 2.05076,0.11636 q 0.19957,1.5183 1.10778,2.48711 0.91008,0.93615 2.20977,1.00985 1.29969,0.0737 2.11224,-0.50528 0.78772,-0.5804 1.41186,-1.55797 0.60352,-1.00624 1.14363,-2.28077 0.51632,-1.29426 1.11267,-2.63638 0.57023,-1.34362 1.26736,-2.6145 0.67177,-1.28541 1.63477,-2.25294 2.15428,-2.17107 5.36757,-1.98884 2.82144,0.16011 4.93432,2.41584 2.53332,2.69899 2.53871,7.45612 z m -18.57895,-2.82272 q -1.94629,-0.11036 -2.41414,-1.5653 -1.46941,0.72389 -1.79721,2.80723 l -1.97241,-0.11182 q 0.45403,-3.40753 2.21776,-5.60075 1.76093,-2.16717 4.07292,-2.03605 1.39766,0.0793 2.15751,1.0069 0.75611,0.90119 0.67056,2.40989 -0.0837,1.47603 -0.88647,2.32159 -0.80274,0.84555 -2.04852,0.76837 z m 14.32371,6.22436 q 1.94629,0.11036 2.41415,1.56528 1.4694,-0.72389 1.79722,-2.80721 l 1.97241,0.11182 q -0.39736,3.33213 -2.21776,5.60075 -1.76093,2.16717 -4.07294,2.03606 -1.39766,-0.0793 -2.159,-0.98077 -0.75462,-0.92733 -0.67054,-2.40989 0.0851,-1.50217 0.88793,-2.34772 0.8024,-0.83903 2.04853,-0.76836 z"
       style="fill:#333333;fill-opacity:1;stroke:none;stroke-width:1.0028;stroke-linecap:round;stroke-linejoin:round;stroke-dashoffset:0.34;paint-order:fill markers stroke"
       id="path26" /></g><g
     id="g667070"
     style="opacity:1;fill:#333333;fill-opacity:1"><path
       style="fill:#333333;fill-opacity:1;stroke:none;stroke-width:0.999997;paint-order:fill markers stroke"
       d="m 35.050087,86.504254 c 0,-2.1916 0.804212,-3.59779 2.412636,-4.21859 -0.907678,-1.60842 -2.549024,-2.53021 -4.924035,-2.76535 v -3.34385 c 3.865861,0.29253 7.087412,1.36011 9.664654,3.20274 2.549022,1.84359 3.823534,4.0681 3.823534,6.67356 0,1.58021 -0.498516,2.82649 -1.495552,3.73888 -0.968817,0.90767 -2.299765,1.36152 -3.992842,1.36152 -1.664861,0 -2.995808,-0.42468 -3.992844,-1.27404 -0.997035,-0.84936 -1.495551,-1.97808 -1.495551,-3.38616 z"
       id="path598777" /><path
       style="fill:#333333;fill-opacity:1;stroke:none;stroke-width:0.999997;paint-order:fill markers stroke"
       d="m 37.477032,127.90935 c 2.15319,-0.55339 3.831556,-1.57628 5.0351,-3.06868 1.219535,-1.52612 1.75049,-3.20636 1.592866,-5.04077 -0.15762,-1.8344 -0.628693,-3.211 -1.413209,-4.12989 -0.758905,-0.96158 -1.737339,-1.74095 -2.935303,-2.33811 -1.169287,-0.63711 -2.494612,-1.16659 -3.975975,-1.58835 -1.483851,-0.45074 -2.98966,-0.88217 -4.517431,-1.29441 -1.540052,-0.44525 -3.052715,-0.95647 -4.53799,-1.53369 -1.485277,-0.57722 -2.841786,-1.30471 -4.069526,-2.18244 -2.671549,-1.96165 -4.160663,-4.72701 -4.467344,-8.296109 -0.274987,-3.200229 0.631455,-6.141553 2.681798,-8.856281 2.334082,-3.090406 5.537383,-5.027658 9.647571,-5.779569 l 0.316102,3.67874 c -1.666111,0.505985 -2.960488,1.380944 -3.88314,2.624802 -0.894374,1.243155 -1.274743,2.642363 -1.141107,4.197603 0.13364,1.55525 0.590144,2.762388 1.369521,3.621435 0.777062,0.832156 1.763121,1.535384 2.958179,2.109689 1.226889,0.53805 2.59008,1.01356 4.089579,1.42653 1.534656,0.38243 3.10135,0.80796 4.700086,1.27664 1.596251,0.43973 3.157034,0.96137 4.682348,1.56484 1.550675,0.56885 2.939567,1.34347 4.166678,2.3238 2.774698,2.17277 4.327381,5.18328 4.658047,9.03152 0.290404,3.37965 -0.643881,6.52166 -2.802858,9.426 -2.581918,3.47828 -6.527881,5.64679 -11.837886,6.50548 z"
       id="path598775" /><path
       style="fill:#333333;fill-opacity:1;stroke:none;stroke-width:0.999995;paint-order:fill markers stroke"
       d="m 78.202685,112.61141 c -2.443809,-0.56193 -4.641464,-1.45629 -6.579331,-2.68114 l -0.21061,-3.51324 c 1.463018,1.19321 2.963588,1.9698 4.501262,2.32337 1.565128,0.35991 2.90065,0.34309 3.992691,-0.055 1.118983,-0.41818 2.032041,-1.2214 2.729574,-2.4119 1.44081,-2.49559 1.973807,-6.538322 1.571436,-12.134522 -0.630077,-8.76315 -2.786137,-14.52493 -6.451665,-17.24405 -1.094278,-0.79701 -2.119192,-1.30536 -3.093964,-1.52949 -0.940469,-0.21634 -1.67925,-0.2564 -2.23691,-0.12543 -0.523835,0.11345 -0.986709,0.30471 -1.389821,0.57602 -0.481197,0.33088 -1.05128,0.96532 -1.712647,1.90771 l -0.401444,-5.58347 c 2.019198,-0.83655 4.305605,-0.96128 6.872963,-0.37092 2.594832,0.59666 4.967648,1.67388 7.132657,3.24117 2.162747,1.5355 4.052726,3.40856 5.698279,5.63817 3.465899,4.63702 5.420664,9.85219 5.833999,15.60104 0.451746,6.283002 -0.850123,10.899432 -3.918389,13.858872 -3.021558,2.85759 -7.119411,3.70399 -12.309046,2.51067 z"
       id="path598773"
       inkscape:transform-center-x="-7.7341898"
       inkscape:transform-center-y="-1.59257" /><path
       style="fill:#333333;fill-opacity:1;stroke:none;stroke-width:0.999995;paint-order:fill markers stroke"
       d="m 65.533037,83.822278 v 46.804392 c -2.533344,1.20418 -5.362057,2.90824 -7.463709,4.90764 L 57.968,85.321848 c -0.0025,-1.24965 -0.471453,-2.11302 -1.420036,-2.5788 -0.401021,-0.21244 -0.872472,-0.37716 -1.420038,-0.49531 -0.519165,-0.14196 -1.04969,-0.35329 -1.59044,-0.63616 v -2.15846 h 8.995537 c 1.476272,0.03 2.479914,1.47547 3.000019,4.36916 z"
       id="path598771" /><path
       style="fill:#333333;fill-opacity:1;stroke:none;stroke-width:0.999997;paint-order:fill markers stroke"
       d="m 138.9496,110.33458 c 1.60843,0 2.63369,-1.46264 3.07576,-4.3879 l 2.24332,1.18656 c -0.29251,2.84061 -1.08262,5.00869 -2.37029,6.50425 -1.26041,1.49556 -3.28271,2.24334 -6.06686,2.24334 -2.16338,0 -3.77181,-0.39553 -4.82528,-1.18657 -1.7025,-1.28862 -3.08046,-3.23567 -4.13393,-5.84113 V 81.481698 c 0,-1.81536 -0.48441,-3.38145 -1.45323,-4.69828 -0.93684,-1.34506 -2.28189,-2.25274 -4.03516,-2.72304 v -3.5978 c 9.97034,0.52674 14.95551,5.74707 14.95551,15.66098 v 20.740212 c 0,2.25744 0.89356,3.38615 2.6807,3.38615 z"
       id="path598769" /><path
       style="fill:#333333;fill-opacity:1;stroke:none;stroke-width:0.999997;paint-order:fill markers stroke"
       d="m 113.70052,76.431198 c 1.60843,0.61516 2.41265,2.02135 2.41265,4.21858 0,1.40149 -0.49853,2.53022 -1.49556,3.38615 -0.99705,0.85596 -2.34209,1.28064 -4.03517,1.27405 -1.66486,0 -2.99581,-0.45384 -3.99285,-1.3615 -0.96882,-0.90769 -1.45322,-2.07873 -1.45322,-3.51315 0,-1.43911 0.33675,-2.72773 1.01021,-3.86586 0.67346,-1.13813 1.62348,-2.14927 2.85001,-3.03343 2.54903,-1.84358 5.75646,-2.91115 9.62233,-3.20274 v 3.34382 c -2.37032,0.23421 -4.01166,1.156 -4.92405,2.76537 z"
       id="path598767" /><path
       style="fill:#333333;fill-opacity:1;stroke:none;stroke-width:0.999997;paint-order:fill markers stroke"
       d="m 124.33465,119.49229 c -8.26091,-1.16797 -12.95091,-4.41689 -14.07004,-9.74672 -0.45037,-2.14483 -0.29921,-3.98826 0.45343,-5.53029 0.7604,-1.50522 2.15777,-2.47141 4.19213,-2.89857 2.06198,-0.43296 4.01186,-0.0496 5.84965,1.15047 l -0.8582,-4.087132 c -2.48566,-0.85247 -5.11848,-0.98685 -7.89846,-0.40312 -2.77998,0.58372 -4.95964,1.32589 -6.53899,2.226492 -1.55174,0.89482 -2.79897,1.9352 -3.74173,3.12117 -1.970979,2.42257 -2.625944,5.20796 -1.964898,8.35616 1.366528,6.50811 8.153888,10.22486 20.362068,11.1503 1.7316,0.14486 3.36835,0.25002 4.91027,0.31549 z"
       id="path598765" /><path
       style="fill:#333333;fill-opacity:1;stroke:none;stroke-width:0.999997;paint-order:fill markers stroke"
       d="m 198.80966,93.112608 c 0,12.604022 2.75125,19.705562 8.25374,21.304572 v 4.03517 c -5.73764,-0.64431 -10.29014,-3.02873 -13.65749,-7.15324 -3.36734,-4.07282 -5.05102,-9.19906 -5.05102,-15.378802 0,-6.47134 1.68368,-11.78572 5.05102,-15.94316 3.39556,-4.18566 7.89162,-6.45721 13.48818,-6.81464 v 3.64011 c -5.38962,0.64433 -8.08443,6.09979 -8.08443,16.36643 z"
       id="path598763" /><path
       style="fill:#333333;fill-opacity:1;stroke:none;stroke-width:0.999997;paint-order:fill markers stroke"
       d="m 216.47703,88.116058 c 0,-8.43715 -2.10694,-13.18719 -6.32084,-14.25006 v -3.78121 c 5.47429,0.49758 9.69289,2.79734 12.65576,6.89929 2.78417,3.83764 4.17626,8.82282 4.17626,14.95553 H 202.1564 v -3.86586 z"
       id="path598759" /><path
       style="fill:#333333;fill-opacity:1;stroke:none;stroke-width:0.999997;paint-order:fill markers stroke"
       d="m 175.32639,97.341518 c 0,11.475292 -3.06166,17.730282 -9.18496,18.764942 v 3.99284 c 5.53073,-0.11745 10.14436,-2.09282 13.84093,-5.92576 3.89406,-4.12925 5.84111,-9.58472 5.84111,-16.366432 0,-6.00102 -1.81537,-11.22135 -5.44607,-15.66097 -3.74358,-4.57132 -8.4936,-7.05919 -14.25007,-7.46365 v 3.86585 c 4.39259,1.02526 7.23321,4.74532 8.52182,11.16022 0.43926,2.19158 0.65889,4.7265 0.65889,7.60473 z"
       id="path598757" /><path
       style="fill:#333333;fill-opacity:1;stroke:none;stroke-width:0.999997;paint-order:fill markers stroke"
       d="m 162.75199,116.07713 c -3.57428,-0.52673 -6.20796,-2.77948 -7.90103,-6.7582 -0.49759,-1.10993 -0.93684,-2.23864 -1.31778,-3.38616 l -3.64012,1.09767 c 1.63664,5.653 4.31734,9.42951 8.04212,11.32951 1.37326,0.7318 2.98169,1.23031 4.82527,1.49556 z"
       id="path598755" /><path
       style="fill:#333333;fill-opacity:1;stroke:none;stroke-width:0.999997;paint-order:fill markers stroke"
       d="m 155.25333,90.901638 c 0.7464,-2.05067 2.53272,-3.27314 5.35905,-3.66739 l -0.12888,-3.55313 c -3.88408,0.34599 -6.93935,1.74627 -9.16573,4.20074 -1.94769,2.09421 -2.8738,4.45732 -2.77837,7.08927 0.0975,2.68835 1.20245,4.47894 3.3149,5.371812 0.71382,0.296 1.66903,0.42233 2.86563,0.37894 1.20317,-0.0436 2.26822,-0.52178 3.19519,-1.434512 0.90333,-0.94101 1.33376,-1.99666 1.29134,-3.16694 -0.0425,-1.17028 -0.20531,-2.0303 -0.48887,-2.58005 -0.28336,-0.54692 -0.62174,-0.98878 -1.01517,-1.3256 -0.39342,-0.33775 -0.81334,-0.60112 -1.25975,-0.79011 -0.44639,-0.18901 -0.84856,-0.36501 -1.20648,-0.52806 z"
       id="path54" /></g><g
     id="g674604"
     style="fill:#aea52c;fill-opacity:1"><g
       transform="matrix(2.0994865,-0.26472776,0.22141864,2.2013402,8.5635528,122.31304)"
       fill="#cb6c6c"
       stroke-width="0.124213"
       id="g38"
       style="fill:#aea52c;fill-opacity:1"><path
         d="M 11.9,37.5 C 6.68,35.12 2.54,30.13 1.1,24.4 0.06,20.33 0.564,15.12 2.34,11.6 6.05,4.28 16.94,1.88 24.74,6.64 l 1.6,0.969 1.8,-1.36 c 3.38,-2.56 7.68,-4.34 13.2,-5.44 4.31,-0.869 12.7,-0.866 17,0.00754 5.5,1.11 9.97,2.9 13.2,5.29 l 1.67,1.23 1.31,-0.938 c 2.95,-2.12 6.25,-3.08 10.6,-3.09 4.91,-0.00879 8.21,1.24 10.9,4.09 2.91,3.14 4.03,6.52 4,12 -0.0158,3.21 -0.102,3.88 -0.747,5.78 -0.401,1.18 -0.938,2.53 -1.19,3 l -0.464,0.849 -2.57,-2.34 0.601,-1.7 c 0.88,-2.49 0.878,-7.23 -0.0035,-9.43 -1.21,-3.03 -4.11,-5.37 -7.52,-6.09 -3.7,-0.779 -7.91,0.0558 -10.5,2.08 l -0.646,0.503 2.27,3.17 -3.3,0.076 c -3.26,0.0752 -3.31,0.0677 -4.39,-0.704 -3.87,-2.76 -8,-3.59 -12.4,-2.47 -2.89,0.739 -4.78,1.89 -7.17,4.35 -1.12,1.16 -2.15,2.11 -2.29,2.11 -0.139,0 -0.734,-0.612 -1.32,-1.36 -4.71,-5.98 -13.3,-7.33 -19.6,-3.09 l -1.82,1.22 h -3.09 c -1.7,0 -3.09,-0.0908 -3.09,-0.202 5.4e-4,-0.111 0.482,-0.925 1.07,-1.81 0.588,-0.884 0.981,-1.69 0.874,-1.8 -0.495,-0.48 -3.02,-1.54 -4.31,-1.81 -5.73,-1.2 -10.9,1.01 -13.1,5.62 -0.801,1.68 -0.836,1.89 -0.822,5.11 0.0125,3 0.0938,3.57 0.761,5.34 1.45,3.84 3.48,6.6 6.17,8.4 1.54,1.03 1.69,1.22 1.98,2.5 0.172,0.763 0.293,1.41 0.269,1.43 -0.0243,0.023 -0.813,-0.308 -1.75,-0.736 z"
         id="path30"
         style="fill:#aea52c;fill-opacity:1;stroke-width:0.124213" /><path
         d="m 51.43031,46.340814 c -0.311096,-0.537908 0.09046,-1.109636 0.787517,-1.123011 0.309374,-0.0059 0.659475,0.15399 0.773014,0.355079 0.311096,0.537909 -0.09046,1.109636 -0.787518,1.123011 -0.309373,0.0059 -0.659474,-0.15399 -0.773013,-0.355079 z"
         id="path34"
         style="fill:#aea52c;fill-opacity:1;stroke-width:0.124213;opacity:0.3" /><path
         d="m 47.64909,46.23886 c -0.318039,-0.549679 0.107601,-1.155746 0.754976,-1.076606 0.628769,0.07858 1.018815,0.810919 0.625037,1.178313 -0.39632,0.364697 -1.145332,0.310397 -1.378747,-0.0999 z"
         id="path36"
         style="fill:#aea52c;fill-opacity:1;stroke-width:0.124213;opacity:0.3" /></g><path
       id="path40"
       style="font-variant-ligatures:normal;font-variant-position:normal;font-variant-caps:normal;font-variant-numeric:normal;font-variant-alternates:normal;font-variant-east-asian:normal;font-feature-settings:normal;font-variation-settings:normal;text-indent:0;text-decoration-line:none;text-decoration-style:solid;text-decoration-color:#000000;text-transform:none;text-orientation:mixed;white-space:normal;shape-padding:0;shape-margin:0;inline-size:0;isolation:auto;mix-blend-mode:normal;fill:#aea52c;fill-opacity:1;stroke-width:1;paint-order:markers stroke fill"
       d="m 164.18543,152.65197 c -9.81417,0.69581 -22.54488,2.44398 -26.93217,4.04277 -5.69481,2.08151 -8.35686,3.77734 -9.98306,6.60586 -4.53523,-2.43901 -6.16522,-4.21353 -9.69891,-3.80877 l -0.0208,-3.2e-4 c -3.46481,0.39916 -6.45346,3.76672 -8.8943,6.03468 -3.99509,-3.75455 -11.13232,-4.31253 -26.643778,-2.34293 -18.263542,2.34258 -25.150872,4.76192 -27.449859,9.68098 -2.418014,5.13527 -0.870309,18.85705 3.32153,29.29255 2.207582,5.51876 6.080653,9.35186 11.464396,11.39364 -3.738133,-1.96533 -6.494271,-5.07991 -8.173189,-9.27175 -3.747668,-9.32537 -5.134705,-21.61383 -2.968589,-26.20732 1.976784,-4.4012 8.143699,-6.56797 24.468504,-8.65749 15.202823,-1.9563 21.433855,-1.14322 24.781315,3.23144 1.02176,1.33485 1.39567,2.96844 1.89581,8.24029 0.73624,7.70434 0.12831,13.16499 -2.2434,20.24444 -1.07585,3.14712 -2.50887,5.61344 -4.56493,7.61875 3.33943,-2.49601 5.46912,-5.69477 6.88208,-10.07797 2.64373,-7.91705 3.32758,-14.06634 2.51939,-22.65082 -0.31767,-3.351 -0.59478,-5.36466 -0.97985,-6.77149 l 0.11603,0.14749 c 2.15834,-1.9483 -1.92721,-4.01382 7.16932,-5.04342 7.29406,-0.38872 5.93367,1.73136 7.37146,3.16366 -0.44044,1.9182 -0.25217,3.71523 0.51715,8.74615 0.61927,4.05679 1.81786,9.3273 2.67225,11.71121 2.20679,6.14334 5.15608,11.31681 9.58402,14.95015 -1.52945,-1.37557 -2.80443,-3.08931 -3.93872,-5.20353 -3.52787,-6.68255 -4.963,-12.13243 -5.30207,-20.20898 -0.23587,-5.52567 -0.0771,-7.29302 0.80767,-8.9091 2.89839,-5.2961 9.35523,-7.63873 25.67957,-9.31855 17.52749,-1.81521 24.34943,-1.08915 27.07267,2.94354 2.95087,4.18391 3.26726,17.11647 0.66367,27.58484 -1.42406,5.75359 -4.78199,10.24835 -9.91202,13.29809 8.73968,-4.34901 12.29909,-10.22199 13.23765,-21.59467 0.65591,-7.29212 -0.52534,-19.99195 -2.15754,-23.11113 -1.55398,-3.02918 -4.43729,-4.89939 -8.95805,-5.80532 -0.69877,-0.14072 -1.71777,-0.22057 -2.97841,-0.24738 -2.20614,-0.0469 -5.15344,0.0685 -8.42484,0.30041 z" /><path
       d="m 197.41172,182.52842 1.15531,2.90536 c 0.11793,0.30646 0.51279,0.31548 0.87853,0.0309 l 26.86231,-21.14442 c 0.36578,-0.28453 0.55912,-0.76294 0.44123,-1.06939 l -1.15531,-2.90534 c -0.11783,-0.30651 -0.51277,-0.31547 -0.8785,-0.0309 l -26.86233,21.14444 c -0.36556,0.29019 -0.5649,0.76579 -0.44123,1.06938 z m 6.72935,3.15706 2.58537,-3.76712 c 0.27301,-0.39815 0.72421,-0.60548 0.99524,-0.44934 l 4.80106,2.78102 4.40622,-7.35945 c 0.24884,-0.41467 0.69823,-0.66149 0.99176,-0.53875 l 2.77496,1.10163 c 0.28707,0.11395 0.32093,0.53072 0.0657,0.93706 l -7.48391,11.94188 c -0.26035,0.42039 -0.72823,0.65303 -1.01081,0.50288 l -8.11768,-4.18379 c -0.27638,-0.14208 -0.28132,-0.57322 -0.008,-0.96575 z m -0.74763,-18.29382 7.48969,-11.94472 c 0.26032,-0.42039 0.72821,-0.65303 1.01079,-0.50288 l 8.12345,4.18088 c 0.27037,0.13939 0.27541,0.57042 0.008,0.96577 l -2.58538,3.76712 c -0.27302,0.39816 -0.72423,0.60547 -0.99524,0.44932 l -4.80685,-2.77815 -4.40623,7.35944 c -0.2488,0.41466 -0.69823,0.6615 -0.99176,0.53875 l -2.77497,-1.10163 c -0.29282,-0.11109 -0.32092,-0.53071 -0.0713,-0.93427 z"
       id="path522680"
       style="fill:#aea52c;fill-opacity:1;stroke-width:1" /><text
       xml:space="preserve"
       style="font-style:normal;font-variant:normal;font-weight:normal;font-stretch:normal;font-size:15.2231px;line-height:1.2;font-family:'Seaweed Script';-inkscape-font-specification:'Seaweed Script';text-align:center;text-anchor:middle;fill:#aea52c;fill-opacity:1;stroke:none;stroke-width:2;stroke-linecap:round;stroke-linejoin:round;paint-order:fill markers stroke"
       x="38.280163"
       y="276.13763"
       id="text600017-3-6-9"
       transform="matrix(1.0704931,-0.34139479,0.47425391,0.78290293,0,0)"><tspan
         sodipodi:role="line"
         id="tspan600015-5-2-1"
         x="38.280163"
         y="276.13763"
         style="font-style:normal;font-variant:normal;font-weight:normal;font-stretch:normal;font-family:'Seaweed Script';-inkscape-font-specification:'Seaweed Script';fill:#aea52c;fill-opacity:1;stroke-width:2">hub</tspan></text></g></svg>
