<svg id="ob" enable-background="new 0 0 512 512" version="1.1" viewBox="0 0 580 200" xml:space="preserve" xmlns="http://www.w3.org/2000/svg" xmlns:xlink="http://www.w3.org/1999/xlink"><path d="m322 127c-0.0948 9e-3 -0.192 0.0511-0.3 0.126-0.144 0.0999-0.298 0.257-0.472 0.474-0.8 1-0.866 1.71-0.168 1.93 1.03 0.33 2.05-0.708 1.68-1.71-0.215-0.574-0.454-0.851-0.738-0.822zm-7.29-116c1.4-0.342 1.99 0.657 1 4.15-4.71 6.98 1.57 8.18 7.12 4.96 15.2-5.73 30.6 1.77 44.7 7.22 5.72 5.33 22.3 0.518 20.5 10.6-5.34 10.9 13.4 3.19 12.7 11-4.84 10.5 4.16 1.72 8.19-0.437 6.74 4.23-0.535 17.3-3.41 23.4-7.11 7.18 5.7 12.5 10.4 16.5 7.39 1.68 8.26 7.17 2.85 12.2-3.75 9.66-6.73-5.57-13 0.988-5.8 5.43 2.05 5.01 4.23 6.77 0 0-3.75 1.18-3.93 3.4-0.362 2.97 4.52 3.87 5.81 6.44 2.39 4.78 3.53 10.4 3.09 15.7-0.253 3.13-1.69 7.6-3.29 8.82-2.1 1.86-3.13 4.16-5.22 6.02 1.7-3.17 2.7-6.69 2.72-10.4 0.267-5.52-1.42-10.9-3.15-16 0.362-3.61-2.69-6.47-6.24-5.35-5.01 0.941-10.1 1.68-15.2 1.31-3.2-0.285-8.17-0.477-8.89-4.45 1.09-2.72 0.195-5.7-3.12-6.15-6.29-1.22-12.7 0.0849-19-0.518 2.58 2.1 5.7 3.43 8.43 5.3 4.02 2.48-2.1 4.2-4.13 4.8-2.66 1.27-6.89 1.57-7.61 5.01 1.83 3.14-2.39 2.62-3.33 4.87-0.733 3.11 1.01 6.17 2.2 8.98 2.28 2.95 6.23 0.525 9-0.352 3.42-1.01 6.78-3.24 10.5-2.62 2.05 4.07 3.29 8.51 5.04 12.8 0.643 2.96 4.4 6.4 1.28 9.11-3.61 2.35-8.04 3.04-11.8 5.1 0.83 1.95 4.71 0.0939 6.54-0.293 3.87-2.05 4.7 2.62 4.02 5.4-0.264 2.57-1.01 7.86 3.13 7.03 0.583-0.083 1.13-0.279 1.67-0.506-2.06 1.48-4.11 2.92-6.27 4.33-7.86 3.94-17 2.28-25.3 4.32-0.67 5.21-3.96 6.64-7.42 1.81-2.51 1.92-8.18 5.29-11.7 0.0701-5.9-7.54-14.3 14.1-15 0.728-7.1 2.4-3-6.04 1.44-5.8 2.27 3.13 1.83 5.55 6.32 1.44 5.53-7.11 12.9 7.07 14.8 0.948-2.88-5.83 6.86-0.677 2.72-4.76-5.97-7.41-11.6 3.45-17.4-1.63-5.19-7.6 6.97-3.84 9.47-6.24-7.72-4.07-5.97-18.3-14.3-19.8-6.05 9.59-8.89-1.02-9.62-7.07-6.05 4.22-11.7 15-2.28 19.8 1.93 2.43 15.2 9.63 7.42 9.39-8.15-3.85-12.3-13.9-22-14.1 0.388-5.51-1.48-13.7-9.44-13.5-11 0.0632 14.5-11 12.3 0.482-3.81 13.3 8.04 5.08 9.43-2.5 3.84-6.14-2.3-3.57-4.71-1.67-0.26-9.34 10.6-12.9 16.3-18.5 9.22-3.19-7.85-8.25-2.17-9.09 14.3 2.74 29.2 3.29 43.4-0.632-4.31-4.01-12.3-7.96-18.2-11.7-6.49-6.44-15.9-5.28-22.5 0.257-7.69 6.58-3.81-4.3 1.07-5.71 7.6-5.46 18.1-8.59 23 1.74 10.7 5 23.1 5.1 34.8 4.55 8.75-1.01 18.1-0.765 26.4-3.24-1.99-8.02-11.3-14.3-18.7-18-4.36-4.3-16.6 6.36-14.7-1.44 8.44-4.46 1.27-8.37-5.05-9.14-6.56-3.99-17.8-2.33-21.9-8.92 9.99 0.0996 19.4 4.34 28.7 7.49 9.64 2.32 17.8 8.14 25.1 14.5-4.58-7.15-11-13-17.5-18.2-6.91-6.8-17.2-9.56-23-17.3 6.08 0.934 12.8 6.06 18.5 9.7 7.47 4.52 13.9 10.3 19.2 17.2 6.48 9.38 15-3.21 17.4-9.6 6.44-11.4-7.99-2.47-13.1-2.11-13.3 0.61-0.862-5.35 3.77-9.2-5.21-2.42-13.9-0.202-19.6-4.88-7.36-5.18-17.8-6.17-23.6-13 4.6-2.04 14.1 5.13 20.4 7.22 6.11 4.88 4.86-0.21 8.61-3.46-10.4-2.55-20.1-7.2-30.1-10.9-13.2-6.43-28.4-3.12-41.3 2.25-10.7 5.95 0.696-6.45-1.81-8.76-8.58 6.84-19.5 11.7-25.2 21.5-2.36 10.1-6.99 0.468-7.52-4.66-3.13 0.185-6 12.2-8.87 17-5.95 6.96 0.0467 14.8-1.61 21.7-7.72 5.4-10.2 14.5-14 22.6-4.75 11.5 11.1 1.42 12 9.89 1.41 8.19 1.66 16.6 3.13 24.7 4.94 1.9 4.66-12.3 5.71-17.1 0.738-7.34 3.38-1.49 2.59 2.62-1.1 10-4.36 19.7-8.51 28.9-5.4 8.16 7.55 4.03 6.56 8.47-5.68 3.97-20.3-1.86-11.1-9 8.25-9.64-3.79-16.6-12.9-14.5-11.5-2.45-2.1-13.7 4.41-15.9 0.409 3.36-14.4 10.9-3 11.4 11.8 4.61 10.9-9.87 9.79-17.3 1.34-6.9-2.53 0.305-3.23 0.484-6.16-1.29-17.5-9.21-7.74-15.4 3.75-8.01 8.58-15.5 12.2-23.6-3.06-8.86 2.06-17.5 5.38-25.4 2.54-5.69 7.31-21.6 13.2-9.98 7.39-2.57 12.6-11.5 20.2-15.2 2.69-1.38 9.67-8.6 12.7-9.35zm90.3 74.4c-0.285 0.125-0.352 0.333 0.0743 0.668 4.94 3.87 12.9 12.5 15.9 7.45 1.18-1.98-3.55-2.98-5.51-4.17-2.68-1.64-5.33-4.04-8.45-4.1-0.438-8e-3 -1.52-0.0276-2 0.183zm-74.7 36c-1.63 0.577-3.18 1.42-4.56 2.43-3 1.41 0.0127 3.02 1.54 4.02 1.37 1.56 1.9 6.15 4.87 4.26 1.79-1.78 3.81-2.71 6.31-1.89 3.01-0.0308 4.87-3.39 2.83-5.81-1.69-1.65-6.33 2.79-6.9-0.517-0.154-2.83 3.86-1.36 4.31-2.68-2.75-1.01-5.71-0.787-8.4 0.164zm-9.19 8.22c-0.0949 9e-3 -0.194 0.0514-0.301 0.126-0.143 0.0996-0.298 0.256-0.468 0.471-0.797 0.996-0.858 1.7-0.165 1.92 1.03 0.327 2.04-0.707 1.67-1.7-0.215-0.574-0.449-0.848-0.732-0.819zm62.6-21.4c-0.844 0.24-1.59 1.03-2.01 2.14-1.3 1.63-1.14 5.02 1.54 4.89 2.35-1.04 3.97 0.692 6.24 0.682 0.721-0.0709 1.42-0.305 2.07-0.611 2.2-0.618 5.92-4.86 2.11-5.83-2.18 1.67-5.27 1.76-7.37-0.128-0.804-1.08-1.74-1.38-2.59-1.14z" fill="#cb6c6c"/><use transform="matrix(5.13 0 0 5.13 504 -245)" width="100%" height="100%" fill="#d40000" stroke-width=".195" xlink:href="#use9029"/><g fill="#cb6c6c" font-family="'Nova Round'" stroke-dashoffset=".34" stroke-linecap="round" stroke-linejoin="round" text-anchor="middle"><text x="128.32216" y="146.24538" font-size="80px" text-align="center" style="line-height:1.2;paint-order:fill markers stroke" xml:space="preserve"><tspan x="128.32216" y="146.24538">space</tspan></text><text x="153.87598" y="84.766083" font-size="39.3px" text-align="center" style="line-height:1.2;paint-order:fill markers stroke" xml:space="preserve"><tspan x="153.87598" y="84.766083">monkeys</tspan></text><text x="468.91592" y="153.96164" font-size="39.3px" text-align="center" style="line-height:1.2;paint-order:fill markers stroke" xml:space="preserve"><tspan x="468.91592" y="153.96164">&lt;/&gt;</tspan></text><text x="498.59753" y="117.08186" font-size="80px" text-align="center" style="line-height:1.2;paint-order:fill markers stroke" xml:space="preserve"><tspan x="498.59753" y="117.08186">hub</tspan></text></g></svg>
