<svg id="ob" enable-background="new 0 0 512 512" version="1.1" viewBox="0 0 512 512" xml:space="preserve" xmlns="http://www.w3.org/2000/svg" xmlns:xlink="http://www.w3.org/1999/xlink"><path d="m257 12.3c-107-0.471-206 70.6-235 177-42.6 152 65.6 302 223 310v2e-3c112 5.75 215-68.6 246-177 38.7-137-47.2-278-187-306-15.5-3.09-31-4.62-46.4-4.69z" fill="#303030" style="paint-order:stroke fill markers"/><path d="m208 289c-0.19-0.0518-0.409-0.0405-0.673 0.0267-0.351 0.0892-0.765 0.281-1.26 0.576-2.28 1.36-2.92 2.68-1.73 3.62 1.76 1.39 4.49 0.119 4.49-2.09 0-1.27-0.261-1.98-0.832-2.13zm70.5-231c2.96 0.355 3.38 2.72-1.07 8.77-14.2 10.1-2.91 17 10.2 14.8 33.6-0.0755 58.1 25.7 81.4 46.5 7.22 14.5 42.8 17.2 32 35.4-18.3 17.3 23.6 15.9 16.7 30.5-17 16.8 6.81 6.35 16.2 5.11 9.98 13.1-13.6 33.1-23.6 42.8-19 8.75 1.96 28.4 8.2 39.6 13.1 8.64 10.8 19.9-3.34 25.7-14.3 16-8.99-15.7-25.9-7.53-15.2 6.3 0.34 11.2 3.28 16.2 0 0-8.12-0.443-10.1 3.74-2.86 5.49 5.95 10.8 6.58 16.7 1.16 11-0.699 22.7-5.39 32.6-2.77 5.89-8.81 13.5-12.8 14.7-5.42 2.09-9.09 5.78-14.5 7.87 5.6-4.92 10.1-11 12.8-18.1 4.53-10.5 5.14-22.1 5.53-33.3 3.33-6.74-0.503-14.5-8.21-14.9-10.4-1.82-20.8-4.09-30.5-8.54-6-2.88-15.5-6.87-14-15.1 4.1-4.48 4.52-10.9-1.58-14.2-11.3-6.93-24.6-9.04-36.4-14.8 3.47 5.95 8.55 10.8 12.5 16.4 5.98 7.73-7.13 6.61-11.5 6.29-6.08 0.534-14.5-1.96-18.4 4.17 1.26 7.41-6.54 3.35-10 7.01-3.68 5.49-2.53 12.7-2.26 19 2.27 7.38 11.7 5.55 17.7 5.86 7.36 0.521 15.5-1.34 22.2 2.54 1.01 9.38 0.19 18.9 0.482 28.4-0.903 6.2 3.87 15.6-4.14 18.6-8.7 1.93-17.8 0.0372-26.6 1.3 0.192 4.38 9.07 3.61 12.9 4.19 9-1.15 7.21 8.5 3.86 13.4-2.38 4.79-7.67 14.5 0.965 15.9 1.19 0.263 2.4 0.283 3.61 0.236-5.06 1.37-10.1 2.67-15.3 3.83-18.1 1.93-34.7-7.97-52.1-10-5.09 9.62-12.5 10-15.7-1.88-6.27 1.89-19.7 4.3-22.7-8.36-5.95-18.9-37.9 16.9-29.7-9.53-15.5-0.512-1.43-13.9 7.02-10.2 2.13 7.73-0.488 12.1 11.2 7.38 15.9-9.76 19.9 23.1 28 12.6-1.35-13.4 13.8 3.68 8.73-7.26-6.18-18.7-25-1.75-32.5-15.8-4.54-18.5 16.3-2.38 22.9-5.22-12-13.5 1.77-39.9-13.3-48.7-18.7 14.2-16.5-8.45-13.5-20.7-14.8 3.78-33.6 20.6-18.8 36.7 1.98 6.12 22.4 29.7 7.55 23.6-13-13.4-13.7-35.9-32.5-43.3 4.76-10.4 7.08-27.6-8.47-33.1-21.3-7.85 36.1-10.7 23.5 9.88-17.1 23.1 11.9 15.7 20.1 2.01 11.9-9.11-1.86-8.59-7.91-6.67 6.29-18.3 29.9-17.4 45.1-24 20.2 0.532-9.21-21.7 2.4-19.2 25.7 15.7 54.2 27.6 84.5 30.3-5.44-10.9-18.1-24.4-26.8-36-7.89-17.2-27-21.8-43.9-15.9-19.7 7.16-4.26-11.1 6.22-10.3 18.7-5.05 41.3-3.5 43.3 20.1 17.2 17.5 41.1 26.7 64.1 34.1 17.7 4.4 35.7 11.7 53.5 12.9 1.98-17-11.5-35.9-23.2-48.6-5.32-11.5-36.9 0.229-27.5-13.5 19.6-2.5 8.55-15.3-3.14-21.4-9.81-12.5-32.9-17.5-35.9-33.2 19.3 7.46 34.4 22.5 50.2 35.4 17 11.5 28.5 28.7 38.2 46.4-3.68-17.2-11.8-33.1-20.8-48-8.46-18.2-26.3-31-32-50.3 11.1 6.23 20.5 21.1 28.9 32.3 11.2 14.2 19.5 30.1 24.7 47.4 5.73 22.9 31.5 4.72 40.8-5.93 20.8-17.5-13.7-10.6-23.8-13.6-26.2-8.48 2.22-11 14-15.1-8.34-8.47-26.8-10.5-34.4-23.7-10.5-15.4-30-24.9-36.3-42.4 10.4-0.615 23.6 20.2 34.2 28.8 8.3 13.9 9.58 3.13 19.2-0.439-18.3-12.5-33.8-28.6-50.5-43-21-22.1-52.8-26.7-81.8-25.7-25.1 3.75 6.04-12 2.87-18.3-21.6 7.03-46.3 8.51-64.4 23.4-11.9 17.8-13.9-4.18-11.2-14.5-6.21-1.92-20.5 19.3-29.6 26.6-16.6 9.16-10.7 28.8-18.9 40.9-18.9 4.86-30.3 20.6-43.6 33.7-17.6 18.9 20.4 10.8 16.1 27.9-3.23 16.9-8.83 33.3-11.9 50.2 8.19 7.28 18-20.5 23.5-29 6.77-13.7 7.63-0.439 3.11 6.95-9.4 18.6-22.8 35.1-37.5 49.8-16.4 11.9 11.7 13.3 6.56 21.2-13.9 3.56-38.1-18.4-14.9-25.5 23-12.7 4.72-34.9-14.4-37.5-20.5-13.1 5.87-28 20.1-27.6-1.65 6.81-35.8 10.6-14.1 19.9 19.5 17.5 28.3-11.2 31.6-26.5 7.62-12.4-5.13-1.25-6.61-1.41-11-6.98-27.3-30.6-3.83-35.4 13.1-12.8 27.9-23.8 40.8-36.8 0.504-19.4 16.7-32.4 28.9-45.3 9.05-9.18 29.9-36.6 32.9-9.72 16.2 0.386 32.8-13.1 50.3-14.8 6.21-0.715 25-9.65 31.5-8.87zm121 210c-0.643 0.0345-0.924 0.39-0.342 1.35 6.75 11.1 16 33.6 25.4 26 3.73-2.97-4.72-8.35-7.65-12.1-4-5.13-7.4-11.7-13.4-14.1-0.843-0.334-2.93-1.16-4.01-1.1zm-171 15.4c-3.58-0.066-7.2 0.45-10.6 1.39-6.85 0.559-2.17 5.86 0.0527 8.92 1.53 4.02-0.778 13.3 6.35 11.8 4.76-2.15 9.35-2.49 13.6 0.916 5.86 2.13 11.9-3.04 9.72-9.2-2.08-4.43-14.3 0.812-13-6.02 1.76-5.6 8.47 0.165 10.3-2.06-4.6-3.97-10.5-5.68-16.4-5.79zm-23.8 9.26c-0.19-0.0528-0.413-0.0413-0.676 0.0254-0.35 0.0889-0.763 0.279-1.25 0.572-2.27 1.35-2.9 2.67-1.72 3.61 1.75 1.38 4.47 0.114 4.47-2.09 0-1.27-0.255-1.97-0.824-2.12zm137 4.09c-1.81-0.148-3.83 0.831-5.46 2.68-3.7 2.21-5.85 8.9-0.562 10.6 5.32-0.308 7.2 4.23 11.6 5.86 1.45 0.387 2.97 0.439 4.45 0.318 4.72 0.404 15-5.11 8.34-9.77-5.45 1.65-11.5-0.423-14.2-5.61-0.772-2.68-2.37-3.95-4.18-4.1z" fill="#cb6c6c"/><use transform="matrix(5.13 0 0 5.13 429 -107)" width="100%" height="100%" fill="#d40000" stroke-width=".195" xlink:href="#use9029"/></svg>
