<?xml version="1.0" encoding="UTF-8" standalone="no"?>
<svg
   xmlns:dc="http://purl.org/dc/elements/1.1/"
   xmlns:cc="http://creativecommons.org/ns#"
   xmlns:rdf="http://www.w3.org/1999/02/22-rdf-syntax-ns#"
   xmlns:svg="http://www.w3.org/2000/svg"
   xmlns="http://www.w3.org/2000/svg"
   xmlns:xlink="http://www.w3.org/1999/xlink"
   xmlns:sodipodi="http://sodipodi.sourceforge.net/DTD/sodipodi-0.dtd"
   xmlns:inkscape="http://www.inkscape.org/namespaces/inkscape"
   inkscape:version="1.0 (4035a4fb49, 2020-05-01)"
   sodipodi:docname="monkeyshub.svg"
   id="svg1069"
   viewBox="0 0 99.4 46.257"
   version="1.1">
  <metadata
     id="metadata1075">
    <rdf:RDF>
      <cc:Work
         rdf:about="">
        <dc:format>image/svg+xml</dc:format>
        <dc:type
           rdf:resource="http://purl.org/dc/dcmitype/StillImage" />
        <dc:title></dc:title>
      </cc:Work>
    </rdf:RDF>
  </metadata>
  <defs
     id="defs1073" />
  <sodipodi:namedview
     inkscape:current-layer="svg1069"
     inkscape:window-maximized="1"
     inkscape:window-y="0"
     inkscape:window-x="0"
     inkscape:cy="23.128007"
     inkscape:cx="49.699816"
     inkscape:zoom="6.8209912"
     showgrid="false"
     id="namedview1071"
     inkscape:window-height="703"
     inkscape:window-width="1024"
     inkscape:pageshadow="2"
     inkscape:pageopacity="0"
     guidetolerance="10"
     gridtolerance="10"
     objecttolerance="10"
     borderopacity="1"
     bordercolor="#666666"
     pagecolor="#ffffff" />
  <g
     id="g1067"
     transform="translate(-.51934 -.21526)">
    <use
       id="use1047"
       xlink:href="#use9029"
       fill="#d40000"
       height="100%"
       width="100%"
       transform="translate(-54.4,19.3)" />
    <g
       id="g1057"
       stroke-width=".26904"
       fill="#cc6c6c">
      <path
         id="path1049"
         d="m11.866 37.5c-5.2202-2.3752-9.3552-7.3708-10.81-13.061-1.0401-4.0668-0.53552-9.2836 1.2361-12.78 3.7093-7.32 14.579-9.7241 22.422-4.9593l1.5955 0.96922 1.8002-1.3625c3.38-2.5583 7.682-4.3361 13.17-5.4423 4.3132-0.86948 12.666-0.8659 17 0.007541 5.5009 1.1082 9.9701 2.8956 13.217 5.286l1.6702 1.2296 1.3054-0.93784c2.951-2.1201 6.2523-3.0843 10.586-3.0921 4.91-0.00879 8.2103 1.2351 10.855 4.0913 2.9087 3.1411 4.0319 6.5198 4.0048 12.047-0.01577 3.2118-0.10208 3.8811-0.74663 5.7844-0.40085 1.1838-0.93763 2.5343-1.1929 3.0012l-0.46405 0.84891-1.2862-1.1691-1.2862-1.1691 0.60094-1.6976c0.87976-2.4852 0.87837-7.2329-0.0035-9.4316-1.2135-3.0281-4.1077-5.3713-7.5227-6.0904-3.7008-0.77934-7.9148 0.055834-10.52 2.0849l-0.64569 0.50296 2.2678 3.1653-3.2973 0.07595c-3.2622 0.07516-3.3089 0.06768-4.3893-0.70443-3.8682-2.7643-8-3.5887-12.376-2.4694-2.8893 0.73895-4.782 1.8886-7.167 4.3531-1.1219 1.1593-2.1534 2.1078-2.2922 2.1078-0.13881 0-0.73426-0.61183-1.3232-1.3596-4.7087-5.9791-13.257-7.3274-19.578-3.0882l-1.8181 1.2193h-3.0876c-1.6982 0-3.0872-0.0908-3.0868-0.20178 5.4e-4 -0.11098 0.48177-0.92512 1.0695-1.8092 0.58778-0.88408 0.98086-1.6927 0.87353-1.7969-0.49459-0.48021-3.0244-1.5441-4.3113-1.813-5.7292-1.1974-10.87 1.0127-13.073 5.6209-0.80131 1.6756-0.83572 1.8895-0.82235 5.1118 0.012459 3.0037 0.09379 3.574 0.76112 5.3378 1.454 3.843 3.4799 6.6007 6.1673 8.3951 1.5408 1.0288 1.6907 1.2181 1.9802 2.5012 0.17229 0.76346 0.29336 1.4069 0.26905 1.43-0.02431 0.02303-0.81307-0.30798-1.7528-0.73555z" />
      <path
         id="path1051"
         d="m92.404 42.478c-0.74924-0.16812-1.5381-0.29356-2.1449-0.80952-0.69105-0.53234-1.4131-1.1355-1.7352-1.9691-0.10323-0.86552 0.77051-1.6971 1.6248-1.6285 0.896 0.179 1.2704 1.19 2.1396 1.4342 0.71332 0.29166 1.4304-0.25971 1.6821-0.91073 0.52996-1.2389 0.49022-2.6311 0.3873-3.9487 0.01607-0.95874-0.97593-0.55756-1.3677-0.09295-1.495 1.2368-3.2013 2.2062-4.9665 3.001-0.42885 0.30816-1.4323 0.37359-0.94448-0.41297 0.28049-0.75384 0.1686-1.7151 0.88381-2.2449 0.65964-0.48667 1.3829-0.88797 1.9873-1.4507 0.76068-0.6681 1.5267-1.3568 2.1163-2.1847 0.26698-0.76138-0.98044-0.70107-1.4698-0.75493-0.68795-0.04028-1.341-0.60081-1.2866-1.3277-0.04784-0.81498 0.67927-1.464 1.4557-1.5237 1.8903-0.18934 3.6592 0.98345 4.7135 2.4837 1.5158 2.1638 2.112 4.9278 1.7638 7.5352-0.24307 1.7815-1.1302 3.6549-2.8602 4.4063-0.62073 0.255-1.3062 0.41439-1.9789 0.39875z" />
      <path
         id="path1053"
         d="m51.913 43.306c-0.493-0.59403 0.12366-1.2107 1.2107-1.2107 0.48167 0 1.0265 0.1816 1.2107 0.40356 0.493 0.59403-0.12366 1.2107-1.2107 1.2107-0.48166 0-1.0265-0.1816-1.2107-0.40356z" />
      <path
         id="path1055"
         d="m45.994 43.306c-0.50368-0.6069 0.15046-1.2591 1.1606-1.1572 0.98122 0.09899 1.6001 0.90735 0.99168 1.2952-0.61196 0.39012-1.7759 0.31545-2.1523-0.13806z" />
    </g>
    <path
       id="path1061"
       style="font-feature-settings:normal;font-variant-alternates:normal;font-variant-caps:normal;font-variant-east-asian:normal;font-variant-ligatures:normal;font-variant-numeric:normal;font-variant-position:normal;font-variation-settings:normal;inline-size:0;isolation:auto;mix-blend-mode:normal;paint-order:markers stroke fill;shape-margin:0;shape-padding:0;text-decoration-color:#000000;text-decoration-line:none;text-decoration-style:solid;text-indent:0;text-orientation:mixed;text-transform:none;white-space:normal"
       stop-color="#000000"
       solid-color="#000000"
       shape-rendering="auto"
       image-rendering="auto"
       fill="#cc6c6c"
       dominant-baseline="auto"
       color-rendering="auto"
       color="#000000"
       d="m50.407 22.828c-1.7632-0.01897-3.4419 1.4457-4.7571 2.3139l1.1549 1.7539c1.1366-0.74935-0.7376-1.9083 3.7051-1.8538 3.9922 0.27153 2.5178 1.345 3.7229 2.102l1.1057-1.7847c-2.4274-1.5053-3.0838-2.5115-4.9314-2.5314zm-15.352 22.827c5.3126-0.73892 7.8902-2.2847 9.5822-5.7465 1.6586-3.3933 2.2853-6.1142 2.3039-10.002 0.01282-2.6714-0.10281-3.5134-0.5828-4.2466-1.5748-2.4055-4.8959-3.2081-13.238-3.1991-8.9254 0.0096-12.353 0.70294-13.709 2.7732-1.4169 2.1625-1.3259 8.3934 0.19443 13.316 1.2362 4.0024 4.5737 6.4354 9.7642 7.1182 2.883 0.37922 2.8655 0.37925 5.6847-0.01282zm38.95 0.25299c5.4012-1.3996 7.6591-3.7929 8.803-9.3306 0.66675-3.2279 0.70378-8.9564 0.0678-10.479-0.6031-1.4434-1.9058-2.4445-4.0465-3.1097-2.6442-0.82172-15.37-1.0581-18.703-0.34747-3.4906 0.74414-4.7695 1.475-5.7086 3.2625-0.71957 1.3695-0.77034 1.7834-0.59705 4.8664 0.10417 1.8533 0.43343 4.2794 0.7317 5.3914 0.82184 3.0639 2.0883 5.6927 4.2789 7.6074 1.6595 1.4504 3.9735 2.0631 6.1449 2.441 2.9668 0.5164 7.1185 0.19284 9.0292-0.30226z" />
    <path
       id="path1063"
       stroke-width=".28462"
       fill-opacity=".14629"
       fill="#fff"
       d="m72.922 45.84c4.4378-1.2154 6.293-3.2936 7.2329-8.1024 0.54783-2.803 0.57826-7.7775 0.05571-9.0993-0.49553-1.2534-1.5658-2.1227-3.3248-2.7004-2.1726-0.71356-12.628-0.91885-15.367-0.30173-2.868 0.64619-3.9188 1.2809-4.6904 2.833-0.59123 1.1892-0.63294 1.5486-0.49056 4.2259 0.08559 1.6093 0.35612 3.7161 0.60119 4.6817 0.67526 2.6606 1.673 4.9248 3.5157 6.606 1.3484 1.2302 3.2534 1.791 5.0488 2.1197 2.434 0.44558 5.8489 0.16745 7.4187-0.26247z" />
    <path
       id="path1065"
       stroke-width=".29673"
       fill-opacity=".15"
       fill="#fff"
       d="m34.68 45.952c4.7508-0.66078 7.0558-2.0431 8.5689-5.1388 1.4832-3.0345 2.0436-5.4676 2.0603-8.9443 0.0115-2.3888-0.09193-3.1419-0.52117-3.7975-1.4083-2.1511-4.3781-2.8688-11.838-2.8607-7.9815 0.0085-11.046 0.6286-12.259 2.4799-1.2671 1.9338-1.1857 7.5057 0.17387 11.908 1.1055 3.5791 4.09 5.7548 8.7316 6.3654 2.5781 0.33911 2.5624 0.33914 5.0836-0.01149z" />
  </g>
</svg>
